<?xml version="1.0" standalone="no"?>
<!DOCTYPE svg PUBLIC "-//W3C//DTD SVG 20010904//EN"
 "http://www.w3.org/TR/2001/REC-SVG-20010904/DTD/svg10.dtd">
<svg version="1.0" xmlns="http://www.w3.org/2000/svg"
 width="905.000000pt" height="783.000000pt" viewBox="0 0 905.000000 783.000000"
 preserveAspectRatio="xMidYMid meet">

<g transform="translate(0.000000,783.000000) scale(0.100000,-0.100000)"
fill="#000000" stroke="none">
<path d="M4020 7633 c-30 -2 -136 -15 -235 -29 -631 -87 -1093 -243 -1550
-522 -185 -113 -246 -156 -395 -278 -590 -482 -1047 -1206 -1230 -1946 -100
-410 -129 -781 -94 -1213 14 -161 37 -337 49 -366 4 -11 -7 -24 -37 -44 -55
-36 -177 -154 -227 -220 -88 -113 -103 -255 -42 -380 36 -73 83 -116 178 -164
63 -31 172 -64 253 -75 25 -4 74 -12 110 -18 l66 -10 39 -87 c221 -487 661
-985 1201 -1357 245 -169 647 -374 899 -458 179 -61 399 -125 444 -131 20 -2
70 -11 111 -20 142 -30 295 -53 440 -66 183 -17 601 -16 745 0 61 7 126 14
145 16 167 14 280 36 497 95 152 41 272 82 503 172 152 59 483 240 695 381
213 142 355 258 526 427 574 569 922 1272 1033 2085 39 288 45 679 12 955 -7
63 -11 120 -9 125 2 6 34 30 71 55 216 145 506 409 625 570 197 267 216 514
51 658 -53 45 -134 99 -134 89 0 -3 19 -16 43 -30 72 -43 118 -98 123 -148 l5
-44 -19 37 c-38 73 -102 132 -187 175 l-30 15 30 -27 c28 -25 25 -24 -36 8
-82 44 -216 90 -334 116 -281 61 -772 83 -1280 55 -55 -3 -139 -7 -185 -9
-219 -11 -314 -17 -420 -29 -63 -7 -126 -13 -140 -14 -14 0 -76 -7 -138 -16
-117 -17 -205 -21 -122 -6 169 31 222 40 275 45 33 3 71 8 85 10 14 3 48 7 75
10 28 3 68 8 90 10 52 7 499 35 548 35 20 0 37 5 37 10 0 6 -14 9 -31 8 -20
-2 -34 3 -40 14 -14 24 -121 150 -144 169 -43 36 -69 60 -57 54 6 -3 12 -2 12
4 0 5 -9 13 -20 16 -11 3 -20 11 -20 16 0 5 -7 9 -15 9 -8 0 -15 5 -15 11 0 5
-5 7 -10 4 -6 -4 -8 -11 -5 -16 4 -5 1 -9 -5 -9 -7 0 1 -13 16 -29 15 -16 33
-27 40 -24 6 2 15 0 19 -6 15 -24 -39 -9 -67 19 -16 17 -37 30 -46 30 -14 0
-15 2 -2 9 8 6 18 7 22 5 4 -3 8 0 8 6 0 7 -8 9 -19 5 -11 -3 -22 -1 -26 5 -3
5 2 10 12 11 13 0 12 3 -7 10 -20 8 -22 12 -10 19 10 7 11 10 3 10 -7 0 -13 6
-13 14 0 7 -11 25 -25 40 -45 49 -11 26 47 -31 32 -31 60 -54 63 -51 3 2 -23
31 -57 63 -49 46 -69 59 -93 58 -16 -1 -22 1 -12 4 9 2 17 9 17 14 0 6 -4 8
-9 4 -10 -5 -26 12 -26 29 0 11 -94 91 -100 85 -2 -3 18 -22 46 -43 28 -21 48
-40 45 -43 -7 -7 -116 86 -113 97 2 7 -398 278 -499 338 -28 17 -32 22 -15 18
17 -3 21 -2 13 6 -5 5 -23 11 -39 12 -15 1 -39 8 -52 15 -18 10 -25 10 -31 1
-5 -8 -9 -6 -14 7 -4 10 -7 20 -7 23 -1 15 -26 30 -82 50 -34 13 -85 33 -114
46 -91 42 -213 84 -213 74 0 -6 5 -10 12 -10 6 0 30 -8 52 -19 23 -10 69 -31
104 -47 34 -15 62 -31 62 -35 0 -8 -16 -2 -153 51 -43 17 -61 20 -70 11 -6 -6
-18 -11 -27 -10 -10 0 -7 4 8 11 28 14 29 32 1 23 -12 -4 -42 2 -72 13 -29 11
-64 23 -79 26 -16 4 -27 12 -25 19 1 7 -7 11 -21 9 -17 -1 -25 4 -29 18 -3 11
-10 20 -15 20 -6 0 -7 -8 -3 -17 15 -37 17 -53 6 -53 -10 0 -15 14 -12 33 1 5
-3 6 -8 3 -5 -3 -30 -3 -56 1 -32 4 -42 9 -33 15 9 6 6 7 -8 3 -13 -3 -28 0
-37 10 -12 11 -17 12 -20 2 -4 -9 -6 -9 -6 0 -1 7 -8 10 -16 7 -8 -4 -12 -11
-8 -17 4 -7 0 -8 -13 -3 -10 4 -35 10 -54 14 -33 5 -34 4 -20 -14 14 -18 14
-18 -3 -5 -10 8 -16 22 -14 32 3 11 0 16 -8 13 -7 -3 -15 2 -18 10 -5 12 0 16
16 17 21 0 21 1 2 8 -15 6 -22 4 -29 -10 -11 -24 -34 -31 -54 -19 -14 9 -13
10 6 5 12 -4 22 -2 22 4 0 5 -24 9 -54 8 -30 -1 -52 -5 -50 -9 3 -4 12 -8 20
-8 8 0 14 -7 14 -15 0 -8 -4 -15 -10 -15 -5 0 -10 4 -10 9 0 5 -13 14 -29 21
-16 6 -31 20 -34 30 -5 18 -57 26 -57 9 0 -5 11 -9 23 -9 14 0 24 -6 24 -15 0
-8 -5 -11 -11 -7 -30 18 -69 -7 -58 -38 4 -11 2 -11 -12 3 -10 10 -25 16 -32
13 -8 -3 -20 -8 -27 -11 -10 -4 -13 2 -12 24 1 21 -2 28 -12 24 -12 -5 -17
-25 -16 -60 1 -12 -10 -17 -28 -15 -81 10 -108 11 -113 4 -3 -5 -20 -10 -38
-11 -186 -10 -173 -17 42 -23 362 -10 665 -64 1020 -181 265 -88 405 -150 606
-268 213 -125 475 -324 634 -481 87 -86 246 -275 238 -283 -2 -2 -41 39 -85
93 -157 187 -313 329 -542 494 -255 183 -472 295 -751 390 -228 78 -270 90
-407 117 -104 21 -156 26 -137 13 15 -10 25 -42 13 -42 -6 0 -7 -5 -4 -10 4
-6 22 -9 40 -8 19 1 37 -1 41 -5 4 -4 -1 -7 -12 -8 -10 0 15 -9 56 -19 41 -10
83 -21 94 -25 10 -5 21 -3 25 3 4 7 12 8 21 2 13 -9 13 -10 0 -10 -8 -1 55
-25 140 -54 492 -168 837 -373 1145 -679 126 -126 126 -126 20 -27 -393 369
-822 602 -1361 740 -251 65 -389 82 -709 87 -402 7 -607 -15 -996 -106 -488
-115 -1000 -396 -1380 -758 -68 -65 -110 -100 -94 -78 17 22 36 44 43 48 7 5
52 47 101 94 49 47 100 92 113 101 13 9 67 51 122 94 107 85 117 109 12 29
-35 -27 -62 -43 -60 -36 3 7 33 32 67 56 78 54 122 90 122 100 0 4 3 11 8 15
4 4 7 2 7 -6 0 -10 3 -10 15 0 8 7 15 16 15 21 0 17 66 71 162 132 132 85 140
90 88 66 -103 -49 -439 -262 -565 -357 -282 -215 -498 -455 -688 -763 -191
-310 -326 -689 -362 -1014 -11 -99 -13 -115 -29 -238 -9 -65 -17 -198 -17
-295 -2 -163 -3 -170 -10 -87 -4 50 -8 143 -9 207 l-1 118 -27 -17 c-26 -17
-26 -17 -13 0 12 15 11 17 -7 17 -15 0 -20 -5 -16 -15 8 -19 -22 -20 -58 -1
-29 15 -37 9 -17 -11 9 -9 7 -12 -7 -11 -16 2 -19 8 -17 37 3 31 2 33 -7 13
-5 -12 -9 -37 -8 -55 1 -19 -2 -39 -6 -45 -4 -6 -2 -21 4 -32 7 -13 7 -20 0
-20 -5 0 -10 -5 -10 -11 0 -6 7 -8 17 -5 16 6 16 5 0 -12 -14 -15 -17 -34 -15
-83 1 -35 7 -67 12 -71 7 -5 6 -8 -2 -8 -10 0 -12 -17 -8 -72 5 -72 5 -72 -5
-18 -27 152 -32 532 -8 700 34 247 179 690 309 951 53 104 200 342 273 439
189 253 469 524 747 722 186 133 540 318 710 373 47 15 121 40 165 55 44 15
114 40 155 54 45 16 62 25 43 23 -18 -2 -31 -2 -28 1 9 9 -24 32 -47 32 -17 1
-13 4 15 15 21 7 42 17 45 21 4 4 -1 4 -11 1 -10 -4 -55 -16 -100 -28 -791
-202 -1514 -723 -1970 -1419 -371 -569 -529 -1144 -515 -1875 3 -134 1 -218
-3 -190 -4 28 -11 171 -15 319 -6 233 -9 264 -20 235 -7 -19 -15 -56 -19 -82
-4 -27 -10 -46 -13 -42 -4 4 -12 -31 -19 -77 -12 -82 -12 -81 -7 67 14 477
164 979 434 1459 50 89 100 172 111 186 l21 25 -20 -35 c-11 -19 -41 -71 -67
-115 -74 -125 -137 -257 -203 -420 -33 -82 -63 -161 -67 -175 -7 -24 -6 -24 8
-5 8 10 12 26 9 34 -3 8 -1 12 5 8 6 -4 15 11 22 34 19 62 200 418 281 553
142 235 310 449 522 663 67 68 112 120 102 118 -11 -1 -18 -8 -16 -14 2 -10
-11 -15 -22 -8 -9 5 -45 -36 -39 -46 3 -5 1 -7 -4 -4 -6 4 -13 -3 -16 -14 -3
-12 -10 -18 -16 -15 -5 4 -13 1 -17 -5 -5 -8 -3 -9 6 -4 9 5 11 4 6 -4 -4 -6
-11 -9 -16 -6 -5 3 -53 -43 -108 -102 -173 -188 -186 -200 -102 -98 220 265
490 501 775 677 61 38 110 72 110 77 0 5 4 13 9 18 5 5 6 3 2 -4 -9 -16 -1
-16 25 -2 11 5 17 14 14 19 -3 5 0 12 6 16 8 4 9 3 5 -4 -4 -7 -5 -12 -3 -12
3 0 72 33 154 74 397 198 710 295 1178 366 374 56 980 45 1360 -26 87 -17 328
-77 360 -91 30 -12 28 -31 -3 -26 -15 2 -7 -4 18 -12 25 -8 56 -13 70 -10 17
4 21 3 12 -3 -11 -7 -10 -10 3 -16 23 -8 27 -8 20 4 -3 6 1 7 9 4 9 -3 13 -10
10 -15 -7 -12 6 -11 44 2 22 8 36 8 49 0 16 -10 15 -11 -7 -10 -65 5 -57 -5
35 -42 285 -113 521 -234 771 -395 95 -61 232 -161 277 -202 15 -14 27 -22 27
-18 0 4 11 -5 24 -19 13 -14 27 -22 30 -17 8 13 -18 34 -29 24 -5 -4 -5 -2 -2
4 4 7 -4 19 -18 28 -14 9 -25 15 -25 12 0 -2 -15 10 -33 28 -39 37 -75 66 -82
66 -3 0 -31 21 -63 47 -62 50 -126 93 -212 140 -30 17 -71 40 -90 52 -36 22
-86 47 -165 80 -25 11 -45 25 -45 30 0 28 182 -70 449 -240 221 -140 507 -391
695 -609 107 -123 207 -256 199 -264 -4 -3 10 -6 30 -6 37 0 48 12 25 27 -7 4
-42 46 -77 93 -320 423 -781 794 -1296 1045 -359 175 -883 332 -1205 360 -41
4 -106 11 -145 17 -73 9 -630 19 -725 11z m1600 -223 c8 -5 11 -10 5 -10 -5 0
-17 5 -25 10 -8 5 -10 10 -5 10 6 0 17 -5 25 -10z m-922 -61 c2 -9 -6 -15 -20
-16 -16 -2 -19 0 -9 6 8 5 10 14 6 21 -5 8 -3 11 6 8 8 -3 15 -11 17 -19z
m-88 -9 c0 -5 -4 -10 -10 -10 -5 0 -10 5 -10 10 0 6 5 10 10 10 6 0 10 -4 10
-10z m265 0 c4 -6 -5 -9 -19 -8 -15 1 -26 6 -26 10 0 12 38 10 45 -2z m-115
-10 c0 -5 -4 -10 -10 -10 -5 0 -10 5 -10 10 0 6 5 10 10 10 6 0 10 -4 10 -10z
m345 -30 c3 -6 -1 -7 -9 -4 -18 7 -21 14 -7 14 6 0 13 -4 16 -10z m102 -26
c-1 -2 -23 0 -47 4 -42 6 -43 6 -15 12 24 5 71 -8 62 -16z m-2547 12 c0 -2 -7
-7 -16 -10 -8 -3 -12 -2 -9 4 6 10 25 14 25 6z m2649 -22 c2 -2 2 -7 -2 -10
-3 -3 -16 2 -29 11 l-23 17 25 -7 c14 -4 27 -9 29 -11z m701 -21 l25 -14 -25
7 c-14 4 -36 13 -50 21 l-25 14 25 -7 c14 -4 36 -13 50 -21z m-740 -13 c0 -5
-5 -10 -11 -10 -5 0 -7 5 -4 10 3 6 8 10 11 10 2 0 4 -4 4 -10z m170 -10 c12
-8 9 -10 -13 -10 -16 0 -26 4 -22 10 8 12 16 12 35 0z m-2930 -5 c0 -2 -13
-11 -30 -20 -38 -19 -40 -11 -2 9 31 17 32 18 32 11z m2807 -1 c-3 -3 -12 -4
-19 -1 -8 3 -5 6 6 6 11 1 17 -2 13 -5z m537 -104 c14 -5 26 -17 26 -25 0 -12
-3 -13 -12 -5 -7 6 -22 17 -33 25 -24 17 -16 19 19 5z m-1027 -36 c-3 -3 -12
-4 -19 -1 -8 3 -5 6 6 6 11 1 17 -2 13 -5z m60 -10 c-3 -3 -12 -4 -19 -1 -8 3
-5 6 6 6 11 1 17 -2 13 -5z m66 -11 c-7 -2 -19 -2 -25 0 -7 3 -2 5 12 5 14 0
19 -2 13 -5z m54 -9 c-3 -3 -12 -4 -19 -1 -8 3 -5 6 6 6 11 1 17 -2 13 -5z
m46 -11 c-7 -2 -19 -2 -25 0 -7 3 -2 5 12 5 14 0 19 -2 13 -5z m-970 -10 c-7
-2 -19 -2 -25 0 -7 3 -2 5 12 5 14 0 19 -2 13 -5z m1014 1 c-3 -3 -12 -4 -19
-1 -8 3 -5 6 6 6 11 1 17 -2 13 -5z m828 -4 c3 -5 1 -10 -4 -10 -6 0 -11 5
-11 10 0 6 2 10 4 10 3 0 8 -4 11 -10z m-1927 -7 c-10 -2 -28 -2 -40 0 -13 2
-5 4 17 4 22 1 32 -1 23 -4z m1139 1 c-3 -3 -12 -4 -19 -1 -8 3 -5 6 6 6 11 1
17 -2 13 -5z m-1347 -34 c-80 -15 -174 -35 -210 -45 -111 -28 -107 -27 -90
-17 39 24 340 90 410 90 19 0 -30 -12 -110 -28z m1387 24 c-3 -3 -12 -4 -19
-1 -8 3 -5 6 6 6 11 1 17 -2 13 -5z m-637 -135 c159 -14 453 -64 525 -88 33
-12 49 -18 35 -15 -313 67 -428 79 -745 79 -335 -1 -390 -8 -795 -104 -69 -16
-174 -48 -235 -71 -135 -50 -372 -164 -451 -217 -145 -97 -263 -180 -309 -218
-27 -23 -60 -48 -73 -57 -61 -41 -294 -269 -374 -365 -34 -40 -63 -73 -65 -73
-8 0 90 121 160 199 110 122 281 282 295 276 7 -3 10 0 7 5 -3 6 2 13 12 17
10 3 22 12 26 20 11 19 178 141 275 202 191 119 498 264 629 295 32 8 119 30
193 50 115 30 248 53 400 69 79 8 383 6 490 -4z m1080 -9 c8 -5 11 -10 5 -10
-5 0 -17 5 -25 10 -8 5 -10 10 -5 10 6 0 17 -5 25 -10z m-1470 -60 c0 -5 -4
-10 -10 -10 -5 0 -10 5 -10 10 0 6 5 10 10 10 6 0 10 -4 10 -10z m530 -20 c0
-5 -4 -10 -10 -10 -5 0 -10 5 -10 10 0 6 5 10 10 10 6 0 10 -4 10 -10z m67
-61 c-6 -10 -15 -15 -20 -10 -5 5 -3 18 4 29 9 14 16 17 20 10 4 -6 2 -19 -4
-29z m428 31 c13 -5 14 -9 5 -9 -8 0 -24 4 -35 9 -13 5 -14 9 -5 9 8 0 24 -4
35 -9z m-75 -94 c0 -3 -4 -8 -10 -11 -5 -3 -10 -1 -10 4 0 6 5 11 10 11 6 0
10 -2 10 -4z m-1125 -36 c3 -5 1 -10 -4 -10 -6 0 -11 5 -11 10 0 6 2 10 4 10
3 0 8 -4 11 -10z m485 -14 c0 -3 -4 -8 -10 -11 -5 -3 -10 -1 -10 4 0 6 5 11
10 11 6 0 10 -2 10 -4z m2155 -26 c3 -6 -1 -7 -9 -4 -18 7 -21 14 -7 14 6 0
13 -4 16 -10z m-2445 -30 c0 -10 -5 -22 -10 -25 -13 -8 -24 20 -16 41 8 20 26
9 26 -16z m285 -30 c3 -5 1 -10 -4 -10 -6 0 -11 5 -11 10 0 6 2 10 4 10 3 0 8
-4 11 -10z m2245 -30 l20 -20 -27 1 c-16 0 -22 3 -15 6 10 4 10 8 1 19 -17 21
-2 17 21 -6z m-4400 -3 c0 -2 -12 -14 -27 -28 l-28 -24 24 28 c23 25 31 32 31
24z m1159 -108 c-33 -20 -52 36 -22 67 17 16 18 15 27 -21 6 -28 5 -39 -5 -46z
m993 59 c-7 -7 -12 -8 -12 -2 0 14 12 26 19 19 2 -3 -1 -11 -7 -17z m2298 8
c0 -9 -30 -14 -35 -6 -4 6 3 10 14 10 12 0 21 -2 21 -4z m-4510 -9 c0 -2 -10
-12 -22 -23 l-23 -19 19 23 c18 21 26 27 26 19z m1780 -11 c0 -2 -7 -7 -16
-10 -8 -3 -12 -2 -9 4 6 10 25 14 25 6z m2715 -26 c3 -6 -1 -7 -9 -4 -18 7
-21 14 -7 14 6 0 13 -4 16 -10z m-4545 -4 c0 -2 -8 -10 -17 -17 -16 -13 -17
-12 -4 4 13 16 21 21 21 13z m890 -16 c0 -5 -4 -10 -10 -10 -5 0 -10 5 -10 10
0 6 5 10 10 10 6 0 10 -4 10 -10z m2210 -29 c0 -5 -3 -17 -6 -25 -6 -15 -8
-15 -19 1 -7 10 -11 21 -9 25 7 11 34 10 34 -1z m-510 -21 c0 -5 -4 -10 -10
-10 -5 0 -10 5 -10 10 0 6 5 10 10 10 6 0 10 -4 10 -10z m-757 -41 c4 -16 3
-18 -9 -8 -7 6 -11 15 -8 20 8 13 11 11 17 -12z m2780 14 c-7 -2 -19 -2 -25 0
-7 3 -2 5 12 5 14 0 19 -2 13 -5z m-3513 -34 c20 -36 -23 -67 -50 -34 -16 19
-3 55 20 55 11 0 24 -9 30 -21z m-570 -9 c0 -5 -7 -10 -16 -10 -8 0 -12 5 -9
10 3 6 10 10 16 10 5 0 9 -4 9 -10z m4224 4 c9 -3 16 -10 16 -16 0 -5 -6 -6
-12 -2 -7 4 -4 -3 7 -16 l20 -23 -33 6 c-17 4 -43 2 -57 -3 -19 -7 -25 -6 -25
4 0 20 12 27 26 15 8 -7 14 -7 19 1 3 6 11 8 16 5 5 -4 9 -1 9 4 0 6 -9 11
-19 11 -11 0 -23 5 -26 10 -7 11 34 14 59 4z m-4224 -34 c0 -5 -5 -10 -11 -10
-5 0 -7 5 -4 10 3 6 8 10 11 10 2 0 4 -4 4 -10z m1610 0 c0 -5 -5 -10 -11 -10
-5 0 -7 5 -4 10 3 6 8 10 11 10 2 0 4 -4 4 -10z m1347 -42 c-3 -8 -6 -5 -6 6
-1 11 2 17 5 13 3 -3 4 -12 1 -19z m-1407 -11 c0 -21 31 -36 81 -37 110 -3
414 -31 422 -39 5 -5 -71 -6 -168 -4 -175 5 -290 -2 -281 -16 3 -4 -4 -15 -15
-24 -10 -9 -19 -14 -19 -11 0 3 -5 2 -12 -2 -26 -16 -67 -14 -77 4 -12 22 -48
22 -63 1 -7 -11 -9 -9 -5 8 5 21 2 22 -47 17 -107 -10 -212 -28 -243 -41 -18
-7 -33 -11 -33 -8 0 3 -8 1 -18 -4 -11 -6 -24 -6 -32 -1 -17 11 -11 19 20 25
12 2 28 9 34 14 7 6 26 10 42 10 16 -1 85 8 153 20 127 21 143 28 170 80 10
17 20 21 52 19 21 -1 39 -6 39 -11z m670 -37 c0 -5 -2 -10 -4 -10 -3 0 -8 5
-11 10 -3 6 -1 10 4 10 6 0 11 -4 11 -10z m166 -37 c-10 -10 -19 5 -10 18 6
11 8 11 12 0 2 -7 1 -15 -2 -18z m-1786 -103 c0 -5 -4 -10 -10 -10 -5 0 -10 5
-10 10 0 6 5 10 10 10 6 0 10 -4 10 -10z m4770 -21 c125 -11 331 -49 407 -75
212 -72 303 -183 290 -353 -13 -178 -147 -362 -448 -618 -215 -183 -627 -454
-871 -574 -92 -44 -103 -48 -109 -32 -8 21 -1 36 12 28 5 -4 9 -2 9 3 0 5 26
25 59 45 32 20 64 44 72 54 11 14 11 15 0 9 -10 -7 -12 -3 -6 13 4 13 2 21 -5
21 -6 0 -9 4 -6 9 9 13 -14 19 -51 13 -18 -2 -33 -2 -33 1 0 5 84 70 170 132
20 14 21 16 5 11 -20 -6 -20 -6 0 9 11 9 25 13 32 11 7 -3 12 0 10 6 -1 6 4
13 12 16 9 3 11 0 6 -9 -5 -8 -4 -11 1 -6 5 5 9 13 9 17 0 5 25 26 55 48 300
211 425 314 532 436 92 107 127 169 134 242 13 143 -86 213 -394 278 -147 31
-347 60 -530 77 -239 21 -1094 -4 -1217 -36 -11 -3 -90 -9 -175 -14 -183 -11
-711 -84 -989 -137 -41 -7 -76 -12 -79 -10 -10 11 309 100 502 141 300 64 348
74 446 89 58 9 146 23 195 31 148 23 383 53 505 65 63 6 149 15 190 20 134 16
567 47 735 53 145 4 408 -3 525 -14z m-5065 -9 c3 -5 1 -10 -4 -10 -6 0 -11 5
-11 10 0 6 2 10 4 10 3 0 8 -4 11 -10z m705 -20 c0 -5 -2 -10 -4 -10 -3 0 -8
5 -11 10 -3 6 -1 10 4 10 6 0 11 -4 11 -10z m2030 -11 c0 -5 -7 -9 -15 -9 -15
0 -20 12 -9 23 8 8 24 -1 24 -14z m-3100 -18 c0 -12 -20 -25 -27 -18 -7 7 6
27 18 27 5 0 9 -4 9 -9z m260 -1 c0 -5 -4 -10 -10 -10 -5 0 -10 5 -10 10 0 6
5 10 10 10 6 0 10 -4 10 -10z m1595 -60 c3 -5 1 -10 -4 -10 -6 0 -11 5 -11 10
0 6 2 10 4 10 3 0 8 -4 11 -10z m-1680 -20 c3 -5 1 -10 -4 -10 -6 0 -11 5 -11
10 0 6 2 10 4 10 3 0 8 -4 11 -10z m1385 0 c0 -5 -2 -10 -4 -10 -3 0 -8 5 -11
10 -3 6 -1 10 4 10 6 0 11 -4 11 -10z m181 -33 c-13 -13 -26 -3 -16 12 3 6 11
8 17 5 6 -4 6 -10 -1 -17z m-551 3 c0 -5 -4 -10 -9 -10 -6 0 -13 5 -16 10 -3
6 1 10 9 10 9 0 16 -4 16 -10z m3069 -104 c-2 -2 -110 -5 -239 -8 -129 -2
-192 -2 -140 2 109 7 385 12 379 6z m359 -3 c-10 -2 -28 -2 -40 0 -13 2 -5 4
17 4 22 1 32 -1 23 -4z m-988 -29 c-80 -7 -221 -20 -313 -29 -93 -10 -170 -15
-173 -13 -2 3 69 13 158 22 258 27 328 33 403 33 48 0 25 -4 -75 -13z m-1870
-84 c0 -5 -5 -10 -11 -10 -5 0 -7 5 -4 10 3 6 8 10 11 10 2 0 4 -4 4 -10z
m-1657 -21 c15 -24 1 -49 -26 -49 -37 0 -49 18 -30 47 17 26 40 27 56 2z
m3577 -4 c0 -8 -7 -15 -15 -15 -8 0 -15 7 -15 15 0 8 7 15 15 15 8 0 15 -7 15
-15z m1636 -39 c72 -19 158 -48 192 -65 57 -29 102 -71 102 -95 0 -26 -79
-127 -163 -209 l-89 -88 -28 83 c-30 89 -92 247 -134 341 -14 32 -26 60 -26
62 0 8 10 6 146 -29z m-3856 -16 c0 -13 -40 -13 -60 0 -11 7 -5 10 23 10 20 0
37 -4 37 -10z m755 0 c3 -5 2 -10 -4 -10 -5 0 -13 5 -16 10 -3 6 -2 10 4 10 5
0 13 -4 16 -10z m-743 -92 c-7 -7 -12 -8 -12 -2 0 14 12 26 19 19 2 -3 -1 -11
-7 -17z m478 8 c0 -3 -4 -8 -10 -11 -5 -3 -10 -1 -10 4 0 6 5 11 10 11 6 0 10
-2 10 -4z m-416 -51 c9 -14 23 -25 30 -25 8 0 17 -15 20 -35 4 -19 11 -35 16
-35 10 0 41 -55 38 -67 -1 -4 2 -19 6 -32 4 -12 4 -27 -1 -32 -5 -5 -30 23
-60 69 -91 135 -110 161 -117 155 -3 -4 -6 -2 -6 4 0 30 54 29 74 -2z m832 15
c280 0 294 -1 283 -18 -6 -10 -35 -34 -64 -55 -29 -20 -55 -47 -59 -59 -3 -13
-4 -278 -3 -591 1 -312 0 -567 -3 -567 -3 1 -22 25 -44 55 -21 29 -102 120
-181 202 l-142 148 -6 135 c-4 74 -10 250 -13 390 l-7 255 -43 49 c-45 50 -56
73 -28 62 9 -3 148 -6 310 -6z m-1789 -73 c34 -40 76 -91 93 -113 l32 -40 -2
-579 c0 -319 -2 -580 -4 -582 -1 -2 -36 30 -77 70 -83 82 -210 196 -282 254
l-47 38 0 279 c1 268 0 279 -20 300 -11 13 -17 26 -13 29 3 4 -180 7 -408 7
l-415 0 -20 -27 c-34 -47 -38 -59 -13 -37 42 36 54 39 31 7 -22 -31 -22 -35
-22 -449 l0 -418 37 -38 37 -38 211 0 210 -1 155 -165 c85 -91 159 -172 163
-180 7 -12 -63 -14 -472 -14 l-480 0 -58 49 c-32 27 -102 93 -155 147 l-96 99
-8 560 c-5 395 -10 562 -18 567 -7 5 54 72 159 178 l170 170 625 0 625 0 62
-73z m714 52 c6 -12 57 -72 114 -134 90 -99 301 -340 794 -905 74 -85 180
-204 235 -264 l100 -108 5 -169 6 -169 -171 0 c-194 0 -165 -12 -279 116 -38
43 -115 128 -170 188 -55 60 -154 170 -220 245 -66 76 -167 190 -225 255 -58
65 -127 145 -155 177 -27 31 -54 59 -60 62 -7 3 -8 -180 -5 -544 l5 -549 -193
193 -192 192 -5 115 c-2 63 -7 354 -11 647 l-7 532 -38 25 c-20 14 -52 46 -69
71 l-31 45 280 0 c275 0 281 0 292 -21z m3216 -121 c111 -112 140 -146 133
-158 -6 -9 -10 -150 -10 -340 0 -179 -3 -436 -7 -572 l-6 -247 -56 47 c-31 26
-58 49 -61 52 -3 3 -48 43 -100 89 -52 47 -121 110 -152 140 l-58 55 0 286 0
285 -50 52 -49 53 -421 0 -420 0 -35 -38 -34 -37 -1 -418 0 -417 48 -50 48
-50 225 0 224 0 30 -34 c75 -83 272 -312 277 -321 4 -7 -158 -9 -479 -7 l-486
3 -78 62 c-43 34 -118 96 -167 137 l-88 75 -6 579 c-4 397 -10 582 -17 589 -8
8 -11 7 -11 -3 0 -22 -10 -5 -16 26 -5 25 8 41 138 166 l143 137 700 1 700 0
142 -142z m-3035 81 c25 -25 37 -44 30 -48 -7 -4 -8 -12 -1 -21 8 -13 10 -13
18 0 7 10 10 6 9 -16 -1 -21 9 -39 31 -61 17 -17 31 -37 31 -45 0 -17 -88 70
-100 99 -7 16 -15 21 -26 16 -13 -5 -16 -2 -11 10 4 10 -1 22 -14 30 -11 8
-19 21 -17 28 2 8 -4 13 -14 11 -12 -2 -15 3 -11 18 8 30 30 24 75 -21z m3476
-4 c-3 -3 -9 2 -12 12 -6 14 -5 15 5 6 7 -7 10 -15 7 -18z m-3562 -2 c21 -28
16 -39 -6 -15 -11 12 -20 24 -20 27 0 11 13 4 26 -12z m-2620 -60 c-24 -48
-75 -228 -101 -362 -40 -204 -56 -361 -63 -616 -4 -164 -8 -220 -13 -177 -11
108 -28 97 -24 -14 3 -66 1 -91 -5 -76 -5 12 -13 107 -16 210 -7 195 3 374 32
550 19 111 84 355 107 397 23 42 21 20 -3 -44 -12 -29 -19 -56 -16 -59 5 -4
33 53 88 181 11 26 23 46 25 43 3 -2 -2 -17 -11 -33z m6211 -25 c-3 -8 -6 -5
-6 6 -1 11 2 17 5 13 3 -3 4 -12 1 -19z m-6266 -15 c-12 -20 -14 -14 -5 12 4
9 9 14 11 11 3 -2 0 -13 -6 -23z m7404 -5 c-37 -54 -205 -226 -308 -316 -97
-84 -357 -282 -372 -282 -3 0 -26 -15 -52 -34 -43 -30 -139 -86 -258 -151 -22
-12 -58 -32 -80 -44 -33 -19 -36 -20 -16 -3 13 11 79 50 145 88 323 182 689
464 864 665 83 97 109 122 77 77z m-1215 -153 c-29 -17 -50 -19 -50 -6 0 5 10
12 23 14 44 8 52 6 27 -8z m-3172 -45 c12 -12 22 -23 22 -26 0 -8 -36 14 -50
30 -18 23 2 19 28 -4z m4217 -71 c-113 -114 -494 -403 -511 -386 -3 2 33 28
78 58 46 29 110 74 143 98 79 59 284 232 314 265 14 14 27 26 30 26 3 0 -21
-27 -54 -61z m-1128 -11 c-3 -8 -6 -5 -6 6 -1 11 2 17 5 13 3 -3 4 -12 1 -19z
m33 -180 c0 -21 3 -38 8 -38 4 0 25 12 45 26 56 37 55 24 -1 -18 -70 -53 -102
-71 -102 -60 0 5 11 17 24 25 l23 16 -13 93 c-7 51 -13 100 -12 108 1 27 27
-114 28 -152z m217 140 c-3 -8 -6 -5 -6 6 -1 11 2 17 5 13 3 -3 4 -12 1 -19z
m-42 -68 c-3 -5 -20 -19 -38 -30 l-32 -22 35 31 c35 32 46 38 35 21z m-240
-180 c-3 -5 -16 -15 -28 -21 -19 -9 -19 -8 3 10 28 23 34 26 25 11z m-5065
-70 c0 -5 -2 -10 -4 -10 -3 0 -8 5 -11 10 -3 6 -1 10 4 10 6 0 11 -4 11 -10z
m5645 -66 c-26 -20 -55 -36 -55 -30 0 5 63 46 70 46 3 -1 -4 -8 -15 -16z
m-6989 -99 c-36 -19 -42 -19 -26 0 7 8 22 15 34 15 18 0 17 -2 -8 -15z m24
-13 c0 -5 -11 -15 -25 -22 -14 -7 -25 -19 -25 -27 0 -7 -4 -13 -9 -13 -22 0
-4 41 24 55 36 17 35 17 35 7z m57 -8 c-3 -3 -12 -4 -19 -1 -8 3 -5 6 6 6 11
1 17 -2 13 -5z m6966 -364 c1 -511 -50 -808 -210 -1215 -54 -136 -187 -425
-196 -425 -3 0 19 53 48 118 57 126 80 194 45 130 -22 -40 -27 -43 -49 -29
-11 7 -11 15 -3 37 5 16 13 38 17 49 4 11 -24 -36 -62 -105 -127 -229 -240
-398 -392 -590 -84 -105 -103 -132 -80 -114 25 20 44 22 63 8 18 -13 18 -15 2
-41 -19 -30 71 59 143 142 35 41 33 37 -10 -20 -70 -92 -239 -283 -326 -366
-65 -63 -245 -211 -383 -314 -36 -27 -71 -53 -77 -58 -7 -5 -13 -7 -13 -4 0 2
26 24 58 48 55 41 282 229 282 233 0 2 -12 3 -27 3 -16 0 -41 6 -56 12 -28 11
-28 11 -10 38 15 24 9 21 -42 -18 -58 -44 -277 -198 -302 -213 -7 -4 -13 -5
-13 -3 0 2 24 20 53 39 103 69 333 257 407 333 41 43 68 74 60 70 -8 -5 -4 4
10 19 14 15 34 33 45 38 17 9 16 6 -5 -18 -25 -28 -25 -28 15 3 103 81 282
287 392 453 176 265 282 492 381 820 122 401 147 564 146 970 0 186 3 269 9
240 8 -43 2 -624 -7 -705 -3 -22 1 -13 8 20 l13 60 9 -85 10 -85 12 80 c31
192 38 517 17 745 -4 51 -4 52 6 20 7 -21 11 -145 12 -320z m-7033 310 c13 -8
13 -10 -2 -10 -9 0 -20 5 -23 10 -8 13 5 13 25 0z m0 -29 c0 -12 -20 -25 -27
-18 -7 7 6 27 18 27 5 0 9 -4 9 -9z m1177 -33 c-3 -8 -6 -5 -6 6 -1 11 2 17 5
13 3 -3 4 -12 1 -19z m5593 -169 c0 -175 -20 -406 -51 -579 -100 -569 -435
-1183 -879 -1608 -70 -68 -226 -196 -355 -293 -408 -307 -916 -536 -1440 -649
-411 -89 -884 -90 -1298 -3 -125 26 -82 25 79 -1 82 -14 190 -27 239 -30 l90
-5 -87 12 c-92 13 -124 26 -67 28 31 1 30 2 -11 9 -25 4 -85 14 -135 21 -49 7
-99 16 -110 21 -17 7 -16 8 5 4 189 -35 622 -49 826 -26 345 38 675 111 964
214 370 130 572 235 888 461 171 122 232 171 231 188 0 9 -2 9 -5 0 -9 -20
-108 -87 -112 -75 -2 7 -10 5 -22 -5 -10 -9 -17 -20 -15 -24 3 -4 -3 -13 -13
-20 -15 -13 -16 -12 -3 4 12 15 11 17 -3 17 -10 0 -14 5 -11 10 10 16 -11 12
-25 -5 -7 -8 -21 -15 -32 -15 -29 0 -33 28 -7 49 13 11 20 23 16 27 -4 5 -11
4 -15 -1 -8 -11 -42 -16 -42 -7 0 3 10 17 23 30 24 28 20 26 -73 -33 -163
-103 -493 -277 -655 -345 -66 -27 -177 -70 -223 -85 -58 -19 -67 -31 -11 -15
44 13 46 13 53 -6 4 -12 1 -14 -13 -9 -11 3 -22 1 -26 -4 -3 -6 0 -8 8 -6 7 3
22 -4 33 -16 19 -22 19 -22 0 -15 -11 4 -22 2 -26 -5 -4 -6 -18 -12 -32 -12
-20 -2 -24 -6 -21 -27 4 -22 3 -23 -7 -7 -6 9 -15 17 -21 17 -16 0 -59 -48
-56 -62 2 -7 2 -10 0 -5 -9 14 -22 7 -16 -9 5 -13 2 -15 -18 -9 -13 4 -29 13
-35 21 -15 19 -28 18 -20 -3 4 -9 1 -20 -6 -25 -9 -5 -5 -8 13 -8 14 0 30 -5
36 -11 7 -7 17 -8 25 -3 19 12 38 14 38 3 0 -9 -28 -14 -60 -11 -8 1 -28 -1
-44 -4 -22 -5 -25 -8 -15 -16 10 -7 6 -8 -13 -4 -16 4 -28 2 -28 -4 0 -15 -30
-12 -31 3 0 6 -4 2 -10 -11 -6 -16 -16 -23 -31 -22 -13 1 -25 1 -28 0 -15 -7
-50 -6 -50 1 0 5 -5 9 -11 9 -5 0 -8 -4 -4 -9 8 -14 -32 -24 -63 -17 -18 5
-22 4 -13 -3 10 -7 7 -10 -15 -15 -16 -3 -38 -4 -48 -3 -19 4 -38 35 -29 50 2
4 -1 7 -7 7 -6 0 -8 -10 -4 -24 8 -32 -6 -38 -41 -20 -22 11 -36 12 -58 4 -38
-13 -50 -13 -42 0 4 6 -5 10 -20 10 -14 0 -24 4 -20 9 3 5 1 12 -4 16 -6 3 -8
-4 -6 -16 7 -38 -8 -44 -20 -9 -10 30 -16 34 -49 36 -32 2 -35 0 -24 -13 8
-10 14 -11 16 -4 6 19 20 2 15 -18 -3 -13 -10 -18 -21 -14 -11 5 -14 2 -9 -11
6 -15 1 -16 -39 -12 -28 4 -43 2 -39 -4 3 -6 22 -10 42 -10 20 0 33 -3 30 -6
-9 -9 -127 -12 -132 -3 -7 10 25 20 37 12 7 -3 8 -1 4 5 -4 7 -15 12 -24 12
-9 0 -23 4 -30 9 -11 6 -10 11 3 25 23 23 45 20 46 -6 0 -22 1 -22 8 -3 5 11
7 23 4 27 -2 4 3 5 11 2 10 -4 16 -1 16 7 0 7 2 10 5 7 10 -10 -7 -38 -19 -31
-6 4 -5 -1 3 -10 17 -21 38 -22 57 -2 14 13 13 19 -7 47 -21 29 -21 31 -4 24
18 -7 18 -6 1 13 -10 11 -21 19 -25 17 -3 -2 -15 0 -26 5 -16 6 -12 8 17 8 20
1 39 -4 41 -11 3 -8 6 -6 6 4 1 12 12 18 44 21 23 2 -41 4 -143 6 -316 3 -465
19 -765 81 -194 40 -336 81 -525 150 -130 47 -173 59 -118 32 45 -22 62 -37
31 -28 -22 7 -34 -9 -13 -16 6 -2 1 -13 -10 -26 -22 -24 -19 -42 7 -42 9 0 13
-3 10 -7 -4 -3 -2 -12 4 -20 14 -16 5 -17 -22 -3 -10 6 -19 18 -19 27 0 10 -6
14 -20 10 -27 -7 -25 7 3 26 13 9 16 15 7 13 -15 -1 -60 -40 -60 -51 0 -3 11
-5 24 -5 30 0 44 -18 25 -32 -10 -7 -8 -8 9 -5 17 4 22 1 22 -16 0 -14 -3 -18
-8 -10 -4 7 -22 13 -40 15 -18 1 -32 5 -32 9 0 4 -12 6 -26 3 -15 -3 -23 -1
-20 5 4 5 1 13 -5 17 -8 4 -9 3 -5 -4 4 -7 2 -12 -4 -12 -6 0 -13 7 -16 15 -4
8 -13 15 -21 15 -26 0 -93 43 -94 59 0 13 -2 13 -7 -1 -5 -12 -11 -15 -21 -8
-12 7 -12 11 -2 24 10 12 10 16 2 16 -7 0 -9 5 -5 12 4 7 3 8 -4 4 -6 -4 -9
-13 -5 -21 3 -8 0 -15 -6 -15 -30 0 -4 -23 61 -55 40 -19 98 -48 128 -65 93
-50 267 -120 445 -181 192 -65 206 -76 30 -24 -75 22 -123 31 -133 26 -17 -10
36 -32 187 -77 52 -15 90 -29 84 -31 -26 -9 -417 130 -623 221 -258 115 -608
339 -830 531 -110 96 -310 299 -359 365 l-33 45 38 -40 c20 -22 57 -61 81 -87
47 -52 56 -58 46 -30 -6 15 -5 16 13 2 10 -8 48 -42 84 -76 86 -82 191 -169
298 -246 110 -80 234 -159 240 -153 9 8 -19 33 -44 39 -24 6 -30 33 -11 47 4
3 0 12 -9 20 -16 12 -17 12 -12 -2 13 -34 -7 -41 -45 -17 -20 13 -36 27 -37
32 0 6 5 5 12 -2 15 -15 32 -16 23 -2 -10 17 7 11 22 -7 14 -17 14 -17 9 0 -4
13 0 17 19 17 13 0 27 4 30 10 3 5 2 10 -2 10 -5 0 -13 10 -18 23 -6 12 -16
21 -23 20 -7 -2 -12 2 -12 7 0 13 17 13 25 0 3 -5 11 -10 17 -10 7 0 6 5 -1
14 -10 11 -8 16 9 21 21 7 21 8 4 26 -12 14 -21 16 -28 9 -8 -8 -6 -14 4 -20
12 -8 10 -10 -8 -10 -19 0 -22 4 -17 20 3 10 1 28 -5 39 -9 17 -8 20 5 15 8
-4 15 -10 15 -15 0 -5 6 -9 13 -9 7 0 28 -11 47 -23 70 -47 90 -59 90 -54 0 3
-39 33 -88 66 -129 89 -348 274 -379 321 -9 14 18 -6 60 -44 42 -38 77 -65 77
-62 0 4 -13 19 -28 34 -28 26 -171 186 -202 226 -8 11 33 -28 91 -85 188 -186
391 -337 654 -486 182 -103 199 -111 373 -187 241 -104 535 -187 812 -228 177
-26 585 -31 795 -10 469 49 886 176 1292 395 215 116 493 316 493 355 0 15
-17 10 -110 -36 -113 -55 -125 -53 -25 4 99 57 110 65 94 75 -8 4 3 16 30 33
23 15 44 33 47 41 3 7 12 16 20 19 17 6 11 -7 -14 -36 -8 -10 -10 -18 -5 -18
6 0 16 7 23 16 8 8 23 20 34 26 19 10 18 8 -3 -16 -14 -14 -21 -29 -18 -33 4
-3 -1 -15 -10 -26 -10 -11 27 14 82 56 117 88 276 248 363 365 177 239 362
620 448 922 13 47 21 67 18 45 -9 -59 -71 -271 -99 -335 -13 -30 -40 -93 -60
-140 -20 -47 -63 -135 -95 -197 -32 -61 -55 -115 -52 -119 4 -4 2 -4 -4 -1 -7
4 -15 0 -18 -9 -3 -9 -2 -12 5 -8 13 7 -13 -42 -36 -71 -15 -19 -15 -18 0 12
25 52 17 52 -16 -1 -17 -27 -48 -71 -70 -98 -21 -28 -36 -55 -32 -60 4 -7 1
-8 -7 -3 -9 6 -11 4 -5 -4 4 -7 -1 -22 -11 -35 -11 -12 -3 -6 16 13 19 20 43
47 53 61 15 22 16 22 7 2 -12 -24 -95 -130 -115 -147 -23 -19 -85 -105 -75
-105 5 0 25 21 45 46 19 26 35 43 35 39 0 -5 8 -1 18 8 18 16 67 13 57 -4 -3
-4 -13 -5 -23 -2 -14 5 -13 2 3 -11 l20 -18 -20 6 c-20 6 -20 6 -1 -9 14 -11
23 -12 33 -4 7 6 10 15 7 20 -3 5 -2 9 2 9 8 0 33 -32 34 -42 0 -13 -18 -9
-23 5 -2 6 -2 2 0 -11 3 -22 -34 -83 -67 -109 -8 -6 -12 -14 -9 -17 5 -6 123
129 230 264 177 222 401 725 469 1052 45 220 74 533 64 686 -7 97 4 156 16 92
l7 -35 2 40 c1 30 4 36 11 25 5 -8 10 -85 10 -171z m-4719 -16 c160 -164 584
-623 577 -627 -2 0 -108 0 -237 2 l-233 3 -247 247 c-279 279 -423 445 -453
524 -9 23 6 25 227 27 l191 1 175 -177z m3747 65 c220 -230 582 -651 582 -679
0 -10 -169 -12 -323 -3 l-106 7 -83 81 c-113 110 -428 441 -519 546 -40 47
-76 87 -79 90 -3 3 -16 18 -29 33 l-24 27 241 0 242 0 98 -102z m-5818 -8 c0
-5 -4 -10 -10 -10 -5 0 -10 5 -10 10 0 6 5 10 10 10 6 0 10 -4 10 -10z m0 -80
c0 -5 -7 -10 -16 -10 -8 0 -12 5 -9 10 3 6 10 10 16 10 5 0 9 -4 9 -10z m-20
-40 c0 -5 -5 -10 -11 -10 -5 0 -7 5 -4 10 3 6 8 10 11 10 2 0 4 -4 4 -10z
m-43 -72 c-3 -7 -5 -2 -5 12 0 14 2 19 5 13 2 -7 2 -19 0 -25z m300 10 c-3 -8
-6 -5 -6 6 -1 11 2 17 5 13 3 -3 4 -12 1 -19z m-240 -120 c-3 -8 -6 -5 -6 6
-1 11 2 17 5 13 3 -3 4 -12 1 -19z m-280 -40 c-2 -13 -4 -5 -4 17 -1 22 1 32
4 23 2 -10 2 -28 0 -40z m10 -60 c-3 -7 -5 -2 -5 12 0 14 2 19 5 13 2 -7 2
-19 0 -25z m6800 -35 c-3 -10 -5 -4 -5 12 0 17 2 24 5 18 2 -7 2 -21 0 -30z
m-6790 -25 c-3 -7 -5 -2 -5 12 0 14 2 19 5 13 2 -7 2 -19 0 -25z m633 -12 c0
-2 -51 -32 -112 -67 -146 -81 -209 -123 -343 -232 -110 -89 -193 -176 -222
-231 -22 -42 -13 -116 20 -160 19 -24 49 -43 103 -66 98 -40 220 -54 414 -46
317 13 1037 127 1645 261 116 26 247 53 293 60 45 8 87 17 93 20 29 18 311 86
348 84 21 -1 -24 -14 -194 -54 -159 -39 -243 -59 -470 -117 -238 -60 -776
-174 -940 -199 -33 -5 -116 -19 -185 -30 -69 -11 -147 -23 -175 -26 -27 -2
-70 -9 -95 -15 -25 -5 -169 -12 -320 -15 -296 -6 -376 2 -478 47 -25 11 -47
18 -50 15 -3 -3 -1 -5 4 -5 6 0 36 -15 67 -34 30 -19 58 -32 61 -29 2 3 2 -5
-1 -16 -6 -24 -30 -32 -88 -28 -22 1 -50 -2 -62 -6 -19 -7 -23 -5 -23 12 0 13
-6 21 -16 21 -13 0 -14 -3 -4 -15 15 -19 -3 -38 -45 -49 -21 -5 -25 -10 -16
-16 11 -6 10 -9 -5 -12 -30 -8 43 -36 139 -54 101 -20 440 -28 587 -15 58 6
179 17 270 25 177 17 400 55 650 113 85 19 205 46 265 59 61 13 119 29 130 34
21 11 13 10 -100 -6 -38 -5 -39 -4 -21 10 19 15 18 16 -20 15 -21 -1 -31 -3
-21 -6 9 -2 17 -10 17 -17 0 -9 -44 -12 -184 -12 -102 0 -183 3 -180 8 3 4 20
8 37 8 29 0 168 21 227 34 167 36 330 80 330 88 0 7 -15 8 -42 4 -35 -6 -39
-5 -29 7 6 8 24 17 39 20 15 3 36 9 47 13 l20 7 -20 -16 c-25 -20 -14 -21 30
-3 30 13 36 13 43 1 5 -11 15 -12 37 -6 l30 9 -35 8 -34 7 34 13 c44 16 53 17
45 4 -7 -12 27 0 36 12 3 4 30 11 60 14 29 3 57 10 60 16 4 7 9 6 13 -1 5 -7
-5 -14 -26 -18 l-33 -7 35 -7 c19 -5 51 -4 70 1 19 4 69 13 110 20 113 17 255
47 455 95 99 25 248 60 330 80 145 34 544 148 634 179 99 36 51 7 -89 -52
-178 -76 -614 -233 -1034 -372 -230 -76 -421 -142 -425 -146 -3 -3 5 -3 19 0
17 5 20 4 10 -2 -8 -5 -33 -12 -55 -15 -30 -5 -35 -4 -20 3 37 18 -63 0 -255
-45 -347 -83 -773 -167 -985 -194 -395 -52 -931 -53 -1157 -2 -85 19 -208 69
-247 100 -116 92 -92 238 63 390 189 187 463 358 784 492 137 57 152 63 152
55z m6147 -18 c-3 -8 -6 -5 -6 6 -1 11 2 17 5 13 3 -3 4 -12 1 -19z m-6770
-10 c-3 -8 -6 -5 -6 6 -1 11 2 17 5 13 3 -3 4 -12 1 -19z m6757 -77 c-4 -17
-9 -30 -11 -27 -3 2 -2 19 2 36 9 41 17 33 9 -9z m-1374 -155 c0 -18 -49 -58
-61 -50 -5 3 -9 16 -9 30 0 14 4 22 10 19 6 -3 10 -1 10 4 0 6 11 11 25 11 15
0 25 -6 25 -14z m-4745 -116 c31 -77 163 -341 176 -354 14 -15 11 -26 -6 -20
-19 8 -120 209 -168 336 -35 92 -43 117 -33 107 2 -2 16 -33 31 -69z m1543 49
c-2 -6 -8 -10 -13 -10 -5 0 -11 4 -13 10 -2 6 4 11 13 11 9 0 15 -5 13 -11z
m-424 -34 c3 -8 1 -15 -4 -15 -6 0 -10 7 -10 15 0 8 2 15 4 15 2 0 6 -7 10
-15z m1206 1 c0 -2 -9 -6 -20 -9 -11 -3 -18 -1 -14 4 5 9 34 13 34 5z m-53
-12 c-3 -3 -12 -4 -19 -1 -8 3 -5 6 6 6 11 1 17 -2 13 -5z m2863 -13 c0 -6 -4
-13 -10 -16 -5 -3 -10 1 -10 9 0 9 5 16 10 16 6 0 10 -4 10 -9z m-290 -80 c0
-6 -4 -13 -10 -16 -5 -3 -10 1 -10 9 0 9 5 16 10 16 6 0 10 -4 10 -9z m675 -1
c3 -5 1 -10 -4 -10 -6 0 -11 5 -11 10 0 6 2 10 4 10 3 0 8 -4 11 -10z m-4121
-26 c5 -14 4 -15 -9 -4 -17 14 -19 20 -6 20 5 0 12 -7 15 -16z m6 -44 c0 -5
-5 -10 -11 -10 -5 0 -7 5 -4 10 3 6 8 10 11 10 2 0 4 -4 4 -10z m2490 -85 c-7
-8 -22 -15 -34 -15 -18 0 -17 2 9 19 34 21 44 19 25 -4z m2459 -25 c-10 -46
-29 -77 -29 -49 0 8 5 20 11 26 6 6 9 17 7 25 -3 7 -11 -3 -18 -23 -7 -20 -21
-41 -30 -47 -16 -10 -16 -7 -3 31 16 47 32 69 43 62 4 -3 11 2 14 11 12 31 15
9 5 -36z m37 15 c-21 -16 -32 -13 -21 4 3 6 14 11 23 11 15 -1 15 -2 -2 -15z
m-1656 -19 c0 -3 -4 -8 -10 -11 -5 -3 -10 -1 -10 4 0 6 5 11 10 11 6 0 10 -2
10 -4z m-3570 -15 c0 -5 -9 -11 -20 -14 -11 -3 -20 -1 -20 3 0 5 8 11 18 13 9
3 18 5 20 6 1 0 2 -3 2 -8z m5220 5 c0 -3 -4 -8 -10 -11 -5 -3 -10 -1 -10 4 0
6 5 11 10 11 6 0 10 -2 10 -4z m216 -48 c-4 -18 -9 -42 -10 -54 -2 -11 -8 -29
-15 -40 -10 -16 -11 -7 -6 46 7 69 10 80 27 80 7 0 8 -12 4 -32z m-1066 -12
c0 -3 -4 -8 -10 -11 -5 -3 -10 -1 -10 4 0 6 5 11 10 11 6 0 10 -2 10 -4z
m-786 -41 c-6 -16 -24 -21 -24 -7 0 11 11 22 21 22 5 0 6 -7 3 -15z m-2735 -9
c-14 -14 -438 -140 -446 -133 -2 2 48 19 109 37 62 18 160 48 218 66 102 32
128 39 119 30z m1536 -56 c3 -5 1 -10 -4 -10 -6 0 -11 5 -11 10 0 6 2 10 4 10
3 0 8 -4 11 -10z m-95 -20 c0 -5 -2 -10 -4 -10 -3 0 -8 5 -11 10 -3 6 -1 10 4
10 6 0 11 -4 11 -10z m1685 -10 c3 -5 -2 -10 -11 -10 -10 0 -14 -3 -11 -7 4
-3 -4 -21 -18 -39 -14 -18 -25 -38 -25 -45 0 -7 -2 -10 -5 -7 -3 3 -27 -16
-53 -41 -59 -57 -166 -151 -218 -191 -258 -198 -665 -392 -961 -460 -48 -12
-99 -26 -113 -32 -14 -6 -35 -12 -47 -14 -26 -3 -64 -23 -45 -24 17 0 -8 -40
-25 -40 -23 0 -54 -40 -48 -61 6 -17 3 -19 -32 -15 -21 3 -39 10 -41 16 -2 6
-15 24 -29 40 -22 27 -29 29 -66 25 -26 -3 -38 -2 -32 4 6 5 26 11 45 13 19 2
-86 3 -235 3 -275 1 -436 15 -560 50 -27 8 -81 22 -120 30 -88 21 -198 56
-192 62 4 3 124 -26 217 -54 8 -2 4 3 -10 11 -14 8 -32 15 -40 16 -22 0 -161
42 -156 47 2 2 48 -7 102 -21 281 -70 640 -102 869 -77 139 15 137 14 155 49
10 17 20 29 24 25 3 -3 6 -1 6 5 0 7 -4 12 -10 12 -21 0 -9 20 13 21 21 1 21
1 -3 8 -23 6 -24 7 -5 14 16 7 17 10 5 17 -8 6 -11 10 -6 10 5 0 3 6 -3 14 -9
11 -6 16 19 24 24 9 30 8 30 -4 0 -7 -6 -14 -14 -14 -9 0 -12 -7 -9 -20 4 -16
8 -18 19 -9 11 9 14 8 14 -5 0 -9 5 -16 11 -16 5 0 7 -5 4 -10 -9 -15 43 -32
99 -32 47 0 48 -1 25 -14 -15 -8 -19 -14 -9 -14 10 -1 9 -4 -5 -10 -18 -8 -18
-9 -2 -9 67 -3 435 99 587 162 93 38 335 162 361 184 8 7 20 13 26 13 5 0 17
8 26 18 9 9 33 26 54 37 43 22 106 66 111 77 4 10 128 108 135 108 4 0 25 18
48 40 23 22 46 40 51 40 4 0 8 6 8 13 0 6 16 28 35 47 19 19 35 38 35 42 0 11
18 10 25 -2z m275 -27 c0 -10 -20 -40 -20 -31 0 3 -3 13 -6 22 -4 11 -1 16 10
16 9 0 16 -3 16 -7z m-5450 -13 c0 -5 -4 -10 -10 -10 -5 0 -10 5 -10 10 0 6 5
10 10 10 6 0 10 -4 10 -10z m4200 6 c0 -2 -25 -19 -55 -37 -34 -20 -55 -40
-55 -51 0 -18 -14 -22 -77 -20 -18 0 -33 -4 -33 -9 0 -6 -4 -8 -9 -5 -5 3 -49
-10 -99 -29 -168 -65 -446 -125 -647 -140 -192 -14 -200 -14 -175 -6 18 7 20
9 7 10 -10 1 -16 5 -13 10 3 5 45 12 93 16 284 23 803 151 848 208 15 19 37
25 60 17 11 -4 25 -4 30 0 6 4 26 10 46 13 20 2 45 9 55 15 21 13 24 14 24 8z
m-4120 -16 c-36 -11 -50 -11 -50 0 0 6 17 10 38 9 33 -1 34 -2 12 -9z m3660 0
c0 -5 -5 -10 -11 -10 -5 0 -7 5 -4 10 3 6 8 10 11 10 2 0 4 -4 4 -10z m240
-30 c0 -5 -5 -10 -11 -10 -5 0 -7 5 -4 10 3 6 8 10 11 10 2 0 4 -4 4 -10z
m1192 -22 c-7 -7 -12 -8 -12 -2 0 14 12 26 19 19 2 -3 -1 -11 -7 -17z m-1042
-29 c0 -5 -4 -9 -10 -9 -5 0 -10 7 -10 16 0 8 5 12 10 9 6 -3 10 -10 10 -16z
m1440 1 c0 -5 -5 -10 -11 -10 -5 0 -7 5 -4 10 3 6 8 10 11 10 2 0 4 -4 4 -10z
m-745 -120 c-3 -5 -11 -10 -16 -10 -6 0 -7 5 -4 10 3 6 11 10 16 10 6 0 7 -4
4 -10z m135 -55 c-7 -9 -15 -13 -19 -10 -3 3 1 10 9 15 21 14 24 12 10 -5z
m-210 -5 c0 -5 -4 -10 -10 -10 -5 0 -10 5 -10 10 0 6 5 10 10 10 6 0 10 -4 10
-10z m278 -32 c-3 -7 -13 -15 -24 -17 -16 -3 -17 -1 -5 13 16 19 34 21 29 4z
m-538 -2 c0 -3 -4 -8 -10 -11 -5 -3 -10 -1 -10 4 0 6 5 11 10 11 6 0 10 -2 10
-4z m1240 -46 c0 -5 -5 -10 -11 -10 -5 0 -7 5 -4 10 3 6 8 10 11 10 2 0 4 -4
4 -10z m-1723 -6 c-3 -3 -12 -4 -19 -1 -8 3 -5 6 6 6 11 1 17 -2 13 -5z m160
0 c-3 -3 -12 -4 -19 -1 -8 3 -5 6 6 6 11 1 17 -2 13 -5z m-2462 -39 l20 -16
-20 10 c-11 5 -29 17 -40 26 l-20 16 20 -10 c11 -5 29 -17 40 -26z m4100 17
c-3 -3 -11 0 -18 7 -9 10 -8 11 6 5 10 -3 15 -9 12 -12z m-4865 -12 c0 -5 -4
-10 -10 -10 -5 0 -10 5 -10 10 0 6 5 10 10 10 6 0 10 -4 10 -10z m4726 -27
c-7 -7 -26 7 -26 19 0 6 6 6 15 -2 9 -7 13 -15 11 -17z m609 -13 c-9 -16 -18
-30 -21 -30 -2 0 2 14 11 30 9 17 18 30 21 30 2 0 -2 -13 -11 -30z m-2482 13
c-7 -2 -19 -2 -25 0 -7 3 -2 5 12 5 14 0 19 -2 13 -5z m507 -3 c0 -5 -4 -10
-10 -10 -5 0 -10 5 -10 10 0 6 5 10 10 10 6 0 10 -4 10 -10z m-561 -4 c-17
-17 -358 -66 -444 -65 -22 1 25 10 105 20 80 11 174 25 210 32 74 14 137 20
129 13z m1346 -6 c11 -17 -5 -32 -21 -19 -7 6 -11 15 -8 20 7 12 21 11 29 -1z
m-3660 -100 c20 -4 35 -4 35 1 0 5 -3 9 -7 9 -5 1 -26 17 -48 36 -34 30 -29
28 35 -14 71 -47 112 -71 310 -184 92 -52 99 -60 25 -28 -55 24 -61 24 -46 7
6 -8 9 -16 6 -19 -3 -3 1 -11 10 -18 12 -10 15 -10 15 1 1 10 4 8 11 -4 6 -9
36 -30 67 -47 31 -16 52 -29 46 -30 -29 -1 -320 158 -426 233 -141 99 -230
172 -130 106 34 -23 78 -45 97 -49z m2705 66 c0 -3 -4 -8 -10 -11 -5 -3 -10
-1 -10 4 0 6 5 11 10 11 6 0 10 -2 10 -4z m730 0 c0 -3 -4 -8 -10 -11 -5 -3
-10 -1 -10 4 0 6 5 11 10 11 6 0 10 -2 10 -4z m-4589 -23 c13 -16 12 -17 -3
-4 -10 7 -18 15 -18 17 0 8 8 3 21 -13z m5969 -3 c-6 -11 -13 -20 -16 -20 -2
0 0 9 6 20 6 11 13 20 16 20 2 0 0 -9 -6 -20z m-5130 -10 c0 -5 -2 -10 -4 -10
-3 0 -8 5 -11 10 -3 6 -1 10 4 10 6 0 11 -4 11 -10z m1997 4 c-3 -3 -12 -4
-19 -1 -8 3 -5 6 6 6 11 1 17 -2 13 -5z m71 -1 c-10 -2 -26 -2 -35 0 -10 3 -2
5 17 5 19 0 27 -2 18 -5z m1012 -13 c0 -5 -4 -10 -10 -10 -5 0 -10 5 -10 10 0
6 5 10 10 10 6 0 10 -4 10 -10z m740 -15 c0 -8 -4 -15 -9 -15 -5 0 -11 7 -15
15 -3 9 0 15 9 15 8 0 15 -7 15 -15z m-1950 -5 c0 -5 -4 -10 -10 -10 -5 0 -10
5 -10 10 0 6 5 10 10 10 6 0 10 -4 10 -10z m720 -10 c0 -5 -7 -10 -16 -10 -11
0 -14 -6 -9 -20 4 -13 2 -20 -6 -20 -7 0 -9 3 -6 7 4 3 -1 11 -10 18 -9 7 -13
17 -9 23 9 15 56 16 56 2z m-3379 -17 c13 -16 12 -17 -3 -4 -10 7 -18 15 -18
17 0 8 8 3 21 -13z m3658 -7 c-12 -12 -59 -17 -59 -6 0 6 4 8 10 5 5 -3 18 -2
27 4 16 9 32 7 22 -3z m41 4 c0 -5 -7 -10 -15 -10 -8 0 -15 5 -15 10 0 6 7 10
15 10 8 0 15 -4 15 -10z m2170 -10 c-6 -11 -13 -20 -16 -20 -2 0 0 9 6 20 6
11 13 20 16 20 2 0 0 -9 -6 -20z m-2695 0 c3 -5 1 -10 -4 -10 -6 0 -11 5 -11
10 0 6 2 10 4 10 3 0 8 -4 11 -10z m492 -16 c-3 -3 -12 -4 -19 -1 -8 3 -5 6 6
6 11 1 17 -2 13 -5z m-67 -14 c0 -5 -2 -10 -4 -10 -3 0 -8 5 -11 10 -3 6 -1
10 4 10 6 0 11 -4 11 -10z m930 6 c0 -2 -8 -10 -17 -17 -16 -13 -17 -12 -4 4
13 16 21 21 21 13z m-110 -26 c0 -5 -5 -10 -11 -10 -5 0 -7 5 -4 10 3 6 8 10
11 10 2 0 4 -4 4 -10z m550 6 c0 -2 -8 -10 -17 -17 -16 -13 -17 -12 -4 4 13
16 21 21 21 13z m-5063 -116 c132 -157 378 -389 548 -515 211 -156 580 -367
827 -471 76 -32 136 -59 134 -61 -4 -4 -314 120 -376 152 -29 14 -49 21 -45
15 3 -5 29 -22 56 -35 27 -14 49 -27 49 -30 0 -2 -25 5 -55 15 -30 10 -55 15
-55 9 0 -18 -2 -24 -11 -36 -7 -8 -4 -13 8 -16 11 -3 6 -5 -12 -6 l-30 -2 24
-19 c28 -24 21 -26 -20 -4 -17 8 -33 14 -35 12 -5 -6 238 -130 309 -158 32
-12 56 -25 53 -27 -7 -7 -193 75 -366 163 -178 90 -441 258 -615 394 -193 151
-453 415 -583 592 -48 66 -63 94 -26 48 16 -19 56 -69 89 -110 l61 -74 88 -1
88 -1 45 -47 c47 -50 48 -54 9 -36 -20 10 -28 9 -41 -5 -17 -16 -16 -28 1 -71
7 -18 6 -18 -9 -6 -9 7 -17 9 -17 4 0 -14 133 -142 240 -231 102 -85 308 -227
316 -219 3 3 -26 25 -64 50 -38 25 -73 51 -77 58 -10 15 4 8 66 -38 47 -33 65
-41 54 -23 -11 18 6 11 37 -15 36 -31 49 -25 38 16 -8 26 -7 30 6 25 9 -3 12
-1 9 4 -3 6 -13 10 -21 10 -8 0 -13 4 -10 8 6 10 -122 98 -130 89 -4 -3 -27
11 -52 33 -24 22 -48 37 -52 35 -5 -3 -21 6 -37 21 l-28 26 35 -23 35 -24 -27
34 c-16 18 -28 38 -28 44 0 7 5 5 10 -5 14 -23 302 -228 321 -228 5 0 21 -7
34 -16 14 -9 25 -13 25 -10 0 4 -39 32 -87 63 -265 170 -543 420 -731 658
-105 133 -92 125 25 -15z m2540 84 c-9 -9 -28 6 -21 18 4 6 10 6 17 -1 6 -6 8
-13 4 -17z m-567 6 c8 -5 11 -10 5 -10 -5 0 -17 5 -25 10 -8 5 -10 10 -5 10 6
0 17 -5 25 -10z m2580 6 c0 -2 -8 -10 -17 -17 -16 -13 -17 -12 -4 4 13 16 21
21 21 13z m-4165 -73 l18 -28 -21 19 c-12 11 -22 23 -22 28 0 14 7 9 25 -19z
m76 0 l24 -27 -24 15 c-14 9 -27 21 -29 27 -6 19 3 14 29 -15z m740 11 c10
-13 10 -17 -2 -25 -8 -5 -16 -9 -19 -9 -3 0 -11 4 -19 9 -12 8 -12 12 -2 25 8
9 17 16 21 16 4 0 13 -7 21 -16z m888 0 c12 -11 -8 -10 -39 2 l-35 14 35 -6
c19 -4 37 -8 39 -10z m1426 6 c-3 -5 -10 -10 -16 -10 -5 0 -9 5 -9 10 0 6 7
10 16 10 8 0 12 -4 9 -10z m2355 -14 c0 -2 -8 -10 -17 -17 -16 -13 -17 -12 -4
4 13 16 21 21 21 13z m-1820 -26 c0 -5 -2 -10 -4 -10 -3 0 -8 5 -11 10 -3 6
-1 10 4 10 6 0 11 -4 11 -10z m-2710 -87 c0 -7 -39 17 -46 28 -3 6 5 3 20 -6
14 -10 26 -19 26 -22z m-132 -128 c78 -48 142 -88 142 -91 0 -7 -115 47 -195
93 -85 49 -131 84 -154 115 -11 16 -7 15 25 -6 22 -14 103 -64 182 -111z
m-633 85 c3 -5 2 -10 -4 -10 -5 0 -13 5 -16 10 -3 6 -2 10 4 10 5 0 13 -4 16
-10z m838 -9 c-3 -12 -11 -17 -19 -14 -11 4 -12 9 -3 19 16 20 28 17 22 -5z
m2097 -11 c0 -5 -5 -10 -11 -10 -5 0 -7 5 -4 10 3 6 8 10 11 10 2 0 4 -4 4
-10z m-1080 -4 c0 -3 -4 -8 -10 -11 -5 -3 -10 -1 -10 4 0 6 5 11 10 11 6 0 10
-2 10 -4z m59 -5 c8 -5 9 -11 3 -15 -5 -3 -15 1 -22 9 -14 16 -3 20 19 6z
m1654 -40 c-67 -33 -194 -83 -263 -102 -104 -29 -311 -94 -352 -110 -26 -11
-52 -19 -58 -19 -7 0 -23 -9 -37 -20 -31 -24 -47 -26 -39 -4 5 13 0 15 -31 10
-142 -21 -267 -29 -468 -30 -202 -1 -316 6 -303 19 2 3 103 6 224 9 195 4 335
17 489 45 136 24 364 74 404 88 24 8 54 17 66 19 39 7 198 62 260 90 77 34
102 41 143 41 31 -1 29 -3 -35 -36z m1205 9 c-14 -22 -38 -35 -38 -20 0 7 38
40 47 40 2 0 -2 -9 -9 -20z m-3067 -36 c12 -11 45 -17 110 -20 52 -3 96 -10
100 -15 3 -6 17 -9 30 -8 13 2 30 0 37 -4 7 -5 12 -3 12 3 0 15 193 5 198 -10
2 -5 18 -9 35 -9 31 2 31 2 5 6 -67 10 -17 18 120 19 176 2 390 21 445 40 49
17 81 18 71 2 -7 -11 -2 -11 146 7 25 3 -7 -8 -70 -25 -147 -38 -550 -91 -550
-72 0 6 -65 10 -157 9 -194 -1 -383 10 -418 23 -14 6 -43 10 -63 11 -30 0 -33
2 -17 9 18 8 18 9 2 9 -10 1 -28 -5 -40 -13 -20 -13 -30 -12 -92 9 l-70 24 48
0 c26 1 47 6 47 11 0 16 52 12 71 -6z m-194 0 c-3 -3 -12 -4 -19 -1 -8 3 -5 6
6 6 11 1 17 -2 13 -5z m75 -70 c-9 -6 -22 -10 -29 -7 -16 6 -16 10 -1 27 9 10
17 10 30 3 15 -10 15 -12 0 -23z m3212 17 c3 -5 -1 -14 -8 -20 -12 -10 -13 -8
-9 8 6 23 9 25 17 12z m-4619 -21 c3 -6 -1 -7 -9 -4 -18 7 -21 14 -7 14 6 0
13 -4 16 -10z m23 -26 c0 -15 -4 -22 -10 -16 -5 5 -6 16 -2 25 9 23 12 21 12
-9z m52 2 c0 -8 -7 -16 -15 -20 -12 -4 -13 -2 -2 14 14 24 17 25 17 6z m2585
-236 c-3 -5 -10 -10 -16 -10 -5 0 -9 5 -9 10 0 6 7 10 16 10 8 0 12 -4 9 -10z
m-1878 -45 c-4 -8 -2 -17 3 -20 14 -9 0 -35 -19 -35 -14 1 -14 2 2 14 11 8 14
17 8 20 -5 4 -17 -4 -25 -16 -9 -12 -18 -19 -22 -16 -3 4 7 20 22 37 30 34 39
39 31 16z m-917 -42 c0 -7 -39 17 -46 28 -3 6 5 3 20 -6 14 -10 26 -19 26 -22z
m995 27 c4 -6 10 -8 15 -5 4 3 6 -4 3 -15 -3 -11 -9 -22 -13 -25 -5 -3 -6 3
-3 14 3 10 0 22 -6 25 -6 4 -11 1 -11 -8 0 -8 -5 -16 -10 -18 -6 -2 -12 -13
-13 -26 -2 -28 -13 -28 -20 0 -4 15 1 30 15 45 24 25 34 28 43 13z m2530 -8
c-3 -3 -11 0 -18 7 -9 10 -8 11 6 5 10 -3 15 -9 12 -12z m-189 -49 c-7 -7 -26
7 -26 19 0 6 6 6 15 -2 9 -7 13 -15 11 -17z m34 -23 c0 -5 -4 -10 -10 -10 -5
0 -10 5 -10 10 0 6 5 10 10 10 6 0 10 -4 10 -10z m-2235 -30 c18 0 15 -74 -3
-76 -7 -1 -13 -2 -14 -4 -2 -1 -11 -3 -20 -5 -11 -2 -15 2 -11 11 4 10 0 12
-12 8 -15 -6 -16 -4 -6 14 6 12 19 26 29 31 9 6 12 11 7 11 -6 0 -16 -5 -23
-12 -7 -7 -12 -8 -12 -2 0 17 24 35 38 29 8 -3 20 -5 27 -5z m-250 -28 c-3 -3
-11 0 -18 7 -9 10 -8 11 6 5 10 -3 15 -9 12 -12z m145 4 c0 -2 -8 -10 -17 -17
-16 -13 -17 -12 -4 4 13 16 21 21 21 13z m30 -6 c0 -5 -5 -10 -11 -10 -5 0 -7
5 -4 10 3 6 8 10 11 10 2 0 4 -4 4 -10z m214 -34 c-3 -9 -10 -16 -15 -16 -5 0
-21 -13 -36 -30 -14 -16 -31 -30 -37 -30 -6 0 0 7 12 16 12 8 22 22 22 30 0 8
7 14 15 14 8 0 20 9 27 20 14 22 21 20 12 -4z m-119 -26 c-12 -19 -41 -29 -56
-18 -11 8 -11 9 4 4 9 -3 17 -1 17 4 0 5 8 11 18 13 9 3 18 5 20 6 2 0 0 -3
-3 -9z m228 -15 c-3 -9 -8 -14 -10 -11 -3 3 -2 9 2 15 9 16 15 13 8 -4z m-193
-4 c0 -5 -7 -12 -16 -15 -14 -5 -15 -4 -4 9 14 17 20 19 20 6z m169 -37 c-6
-8 -19 -13 -28 -13 -13 1 -12 2 2 6 11 3 16 11 13 18 -3 9 0 12 10 8 11 -4 12
-9 3 -19z m881 -44 c0 -5 -2 -10 -4 -10 -3 0 -8 5 -11 10 -3 6 -1 10 4 10 6 0
11 -4 11 -10z m365 -49 c3 -5 1 -12 -5 -16 -5 -3 -10 1 -10 9 0 18 6 21 15 7z
m-1210 -11 l20 -9 -20 0 c-11 0 -27 4 -35 9 -13 9 -13 10 0 9 8 0 24 -4 35 -9z
m1185 6 c0 -2 -7 -6 -15 -10 -8 -3 -15 -1 -15 4 0 6 7 10 15 10 8 0 15 -2 15
-4z m-55 -16 c4 -6 -14 -10 -47 -9 -49 2 -50 2 -18 9 52 11 58 11 65 0z
m-1020 -10 c14 -7 8 -8 -20 -3 -22 3 -42 7 -44 9 -9 8 45 2 64 -6z m-128 -26
c-3 -3 -12 -4 -19 -1 -8 3 -5 6 6 6 11 1 17 -2 13 -5z m46 -11 c-7 -2 -19 -2
-25 0 -7 3 -2 5 12 5 14 0 19 -2 13 -5z m44 -9 c-3 -3 -12 -4 -19 -1 -8 3 -5
6 6 6 11 1 17 -2 13 -5z m-540 -10 c-3 -3 -12 -4 -19 -1 -8 3 -5 6 6 6 11 1
17 -2 13 -5z m2571 -39 c-7 -8 -150 -55 -162 -54 -6 0 25 13 69 29 80 28 103
35 93 25z m-193 -65 c-11 -5 -27 -9 -35 -9 -9 0 -8 4 5 9 11 5 27 9 35 9 9 0
8 -4 -5 -9z m-58 -16 c-3 -3 -12 -4 -19 -1 -8 3 -5 6 6 6 11 1 17 -2 13 -5z
m-70 -20 c-3 -3 -12 -4 -19 -1 -8 3 -5 6 6 6 11 1 17 -2 13 -5z"/>
<path d="M8620 5759 c0 -8 -11 -9 -32 -5 -18 3 -28 3 -23 -2 15 -11 17 -32 4
-48 -9 -11 -8 -14 2 -14 11 0 11 -2 -1 -9 -8 -6 -17 -8 -21 -5 -4 2 -6 -3 -5
-12 0 -10 -16 -25 -39 -37 -22 -12 -41 -24 -43 -28 -2 -5 -10 -5 -19 -2 -8 3
-19 0 -24 -8 -7 -11 -14 -11 -40 -2 -29 11 -30 11 -16 -5 27 -31 47 -80 47
-115 0 -88 -73 -234 -165 -329 -14 -16 -23 -28 -20 -28 4 0 -8 -20 -25 -44
-18 -24 -29 -49 -25 -55 3 -7 3 -10 -2 -9 -4 1 -25 -13 -45 -31 -31 -28 -35
-37 -28 -56 8 -20 4 -25 -26 -40 -19 -9 -32 -20 -29 -25 8 -13 -28 -69 -48
-76 -10 -3 -16 -8 -13 -11 9 -9 206 126 202 139 -1 7 -1 10 1 6 7 -13 58 19
104 64 98 97 161 152 150 131 -22 -44 -10 -36 64 37 41 41 75 80 75 87 0 7 4
13 8 13 12 0 72 86 72 103 0 8 6 17 14 20 8 3 28 35 45 71 41 87 42 159 5 234
-14 29 -32 52 -40 52 -8 0 -14 4 -14 9 0 5 -11 16 -25 25 -16 11 -25 12 -25 5z
m0 -73 c0 -2 -7 -9 -15 -16 -13 -11 -14 -10 -9 4 5 14 24 23 24 12z m-25 -305
c-5 -18 -3 -19 25 -11 27 8 30 7 30 -15 0 -24 -23 -40 -52 -36 -9 1 -19 -3
-23 -9 -9 -15 -25 -12 -25 5 0 8 -9 15 -20 15 -13 0 -20 7 -20 19 0 22 25 45
39 37 5 -4 12 -2 16 4 12 19 37 11 30 -9z m-95 -12 c0 -5 -7 -9 -15 -9 -15 0
-20 12 -9 23 8 8 24 -1 24 -14z m-206 -334 c-28 -22 -40 -18 -13 4 13 11 26
17 28 15 3 -2 -4 -11 -15 -19z m-159 -165 c-9 -14 -66 -43 -72 -36 -11 10 18
35 45 39 15 2 28 5 30 6 2 0 0 -4 -3 -9z"/>
<path d="M8400 5671 l-25 -7 23 -8 c25 -8 62 0 62 15 0 10 -23 10 -60 0z"/>
<path d="M8500 5650 c-8 -5 -28 -10 -43 -10 -16 0 -26 -4 -22 -9 6 -11 63 3
79 19 13 13 6 13 -14 0z"/>
<path d="M8049 4893 c-13 -16 -12 -17 4 -4 16 13 21 21 13 21 -2 0 -10 -8 -17
-17z"/>
<path d="M4943 5303 c26 -2 68 -2 95 0 26 2 4 3 -48 3 -52 0 -74 -1 -47 -3z"/>
<path d="M5113 5303 c9 -2 23 -2 30 0 6 3 -1 5 -18 5 -16 0 -22 -2 -12 -5z"/>
<path d="M5095 4737 c-4 -15 -4 -43 -1 -62 4 -19 3 -35 -2 -35 -5 0 -7 -12 -4
-27 2 -16 1 -25 -3 -21 -8 7 -12 38 -16 116 -2 29 -4 31 -13 15 -14 -24 -16
-43 -5 -43 5 0 9 -4 9 -10 0 -18 -22 -10 -27 9 -7 27 -33 36 -33 11 0 -10 13
-28 28 -38 15 -11 28 -30 28 -41 0 -12 -1 -21 -2 -21 -15 0 -32 15 -28 25 3 8
-4 13 -20 13 -14 0 -26 -5 -26 -10 0 -5 -8 -5 -18 1 -15 8 -18 6 -17 -9 1 -11
4 -23 8 -26 4 -4 7 -16 7 -26 0 -10 5 -18 11 -18 5 0 7 6 3 13 -4 6 2 3 14 -7
25 -21 31 -36 7 -16 -12 10 -15 10 -15 -4 0 -22 -13 -20 -28 4 -7 11 -19 20
-27 20 -7 0 -21 10 -29 22 -9 12 -16 17 -16 11 0 -7 5 -15 10 -18 6 -3 10 -11
10 -17 0 -6 -9 -3 -20 7 -17 16 -20 16 -15 3 4 -9 18 -24 31 -33 30 -19 33
-41 4 -25 -11 6 -20 9 -20 8 0 -2 41 -46 90 -98 86 -91 121 -141 63 -89 l-28
24 24 -27 c13 -15 27 -25 31 -23 8 5 50 -49 50 -63 0 -5 7 -16 17 -23 15 -13
16 3 9 221 -4 148 -11 253 -20 285 -13 47 -14 48 -21 22z m-13 -192 c4 -5 7
-14 7 -20 0 -5 -3 -4 -6 3 -3 7 -23 24 -44 38 -21 13 -39 29 -39 35 0 10 68
-36 82 -56z m-87 35 c10 -11 14 -20 9 -20 -12 1 -44 25 -44 34 0 12 17 6 35
-14z m-36 -117 c12 -16 26 -34 31 -40 6 -7 7 -13 3 -13 -12 0 -76 80 -64 80 5
0 19 -12 30 -27z"/>
<path d="M4890 4716 c0 -2 7 -7 16 -10 8 -3 12 -2 9 4 -6 10 -25 14 -25 6z"/>
<path d="M4962 4681 c-11 -7 -11 -9 0 -14 9 -3 15 1 15 9 0 8 -1 14 -1 14 -1
0 -7 -4 -14 -9z"/>
<path d="M4940 4646 c0 -2 7 -7 16 -10 8 -3 12 -2 9 4 -6 10 -25 14 -25 6z"/>
<path d="M1786 5186 l-126 -133 0 -55 c0 -127 13 -238 27 -238 8 0 11 5 8 13
-4 6 1 3 10 -8 13 -16 19 -18 35 -7 11 7 20 8 20 2 0 -5 6 -7 13 -5 6 3 29 6
49 8 20 2 44 11 53 21 9 9 26 16 39 16 12 0 28 9 36 21 15 20 15 19 21 -13 4
-21 7 -4 8 50 0 45 5 82 11 82 5 0 7 6 4 14 -3 8 -1 17 5 21 6 3 11 1 11 -6 0
-8 7 -5 20 6 11 10 17 21 15 26 -3 4 7 17 21 28 25 20 40 21 253 22 124 1 260
5 301 9 l75 7 -67 1 c-55 2 -66 5 -62 17 4 8 10 13 14 10 4 -3 10 2 14 10 3 8
1 17 -4 20 -6 4 -10 13 -10 21 0 14 2 13 16 0 8 -9 20 -16 27 -16 6 0 2 7 -9
15 -16 13 -17 14 -1 9 10 -4 25 0 35 9 13 12 40 16 106 16 49 0 91 2 94 6 3 3
-89 5 -204 5 -215 0 -496 9 -503 16 -2 2 139 4 314 4 175 0 315 3 311 7 -4 4
-19 8 -34 9 -15 1 -36 2 -47 3 l-20 2 20 8 c11 4 39 7 63 6 42 -2 42 -1 27 21
-8 13 -15 26 -15 29 0 3 30 6 68 7 128 3 -314 15 -614 17 l-302 1 -126 -134z
m945 107 c-11 -5 -11 -7 0 -14 11 -7 11 -9 -2 -9 -9 0 -19 7 -23 15 -4 11 1
15 17 14 13 0 16 -3 8 -6z"/>
<path d="M2803 5213 c9 -2 25 -2 35 0 9 3 1 5 -18 5 -19 0 -27 -2 -17 -5z"/>
<path d="M2949 4946 c14 -14 26 -24 29 -22 7 8 -8 25 -31 37 -21 11 -21 10 2
-15z"/>
<path d="M3040 4550 c0 -5 5 -10 11 -10 5 0 7 5 4 10 -3 6 -8 10 -11 10 -2 0
-4 -4 -4 -10z"/>
<path d="M3251 4543 c-8 -14 -12 -16 -22 -5 -7 6 -17 12 -22 12 -5 0 -1 -8 8
-17 14 -13 21 -14 36 -4 11 6 25 9 31 5 6 -4 9 -1 6 6 -7 21 -25 23 -37 3z"/>
<path d="M3035 4513 c0 -10 5 -25 10 -32 6 -11 3 -13 -16 -8 -20 5 -21 4 -9
-6 9 -7 15 -28 15 -50 0 -29 -3 -36 -15 -31 -8 3 1 -11 19 -30 39 -40 43 -43
35 -21 -4 8 -1 15 5 15 6 0 11 -5 11 -11 0 -6 6 -9 13 -6 6 2 11 10 10 16 -2
6 2 11 7 11 6 0 10 -7 10 -15 0 -8 -5 -15 -11 -15 -6 0 -8 -7 -5 -16 5 -12 2
-15 -11 -10 -10 4 9 -21 43 -54 53 -54 72 -66 107 -69 5 -1 6 -10 2 -20 -6
-19 13 -37 40 -40 6 -1 10 -5 10 -11 0 -5 5 -14 10 -19 7 -7 10 49 10 169 0
98 -3 182 -7 186 -5 4 -8 -10 -8 -31 0 -55 -7 -40 -13 29 -3 32 -10 63 -17 70
-6 6 -10 7 -8 1 2 -5 0 -11 -5 -13 -13 -6 -67 9 -67 19 0 19 -16 8 -17 -12 -3
-31 -13 -37 -27 -16 -7 9 -20 17 -28 17 -8 0 -20 6 -27 13 -10 10 -11 9 -6 -5
4 -10 12 -18 17 -18 13 0 58 -51 58 -65 0 -5 -4 -4 -8 2 -4 7 -19 14 -32 15
-14 2 -28 7 -31 12 -4 4 -10 3 -13 -3 -4 -6 -3 -11 2 -11 5 0 7 -11 4 -25 -2
-14 -9 -25 -14 -25 -6 0 -8 7 -4 15 3 9 0 15 -8 15 -20 0 -7 50 13 51 12 0 11
2 -4 8 -11 5 -20 14 -20 21 0 7 -5 15 -11 17 -6 2 -10 -5 -9 -14z m185 -80 c0
-8 -8 -5 -20 7 -11 11 -20 22 -20 25 0 3 9 0 20 -7 11 -7 20 -18 20 -25z m-84
3 c12 -13 11 -16 -7 -21 -11 -4 -23 -4 -26 -1 -4 3 -1 6 6 6 8 0 11 7 7 15 -7
19 1 19 20 1z m-41 -66 c3 -5 2 -10 -4 -10 -5 0 -13 5 -16 10 -3 6 -2 10 4 10
5 0 13 -4 16 -10z m-30 -10 c3 -5 1 -10 -4 -10 -6 0 -11 5 -11 10 0 6 2 10 4
10 3 0 8 -4 11 -10z m230 0 c3 -5 2 -10 -4 -10 -5 0 -13 5 -16 10 -3 6 -2 10
4 10 5 0 13 -4 16 -10z m-24 -27 c13 -16 12 -17 -3 -4 -17 13 -22 21 -14 21 2
0 10 -8 17 -17z m-26 -3 c3 -5 1 -10 -4 -10 -6 0 -11 5 -11 10 0 6 2 10 4 10
3 0 8 -4 11 -10z m-90 -20 c3 -5 1 -10 -4 -10 -6 0 -11 5 -11 10 0 6 2 10 4
10 3 0 8 -4 11 -10z m65 -10 c0 -5 -4 -10 -10 -10 -5 0 -10 5 -10 10 0 6 5 10
10 10 6 0 10 -4 10 -10z m70 -10 c0 -5 -2 -10 -4 -10 -3 0 -8 5 -11 10 -3 6
-1 10 4 10 6 0 11 -4 11 -10z m-130 -25 c13 -14 21 -25 18 -25 -2 0 -15 11
-28 25 -13 14 -21 25 -18 25 2 0 15 -11 28 -25z m102 -56 c6 -4 -2 -9 -16 -11
-30 -6 -30 -5 -14 22 9 13 14 16 17 8 2 -7 8 -16 13 -19z"/>
<path d="M1971 4505 c-2 -11 -3 -25 -2 -30 0 -6 -16 -10 -38 -10 -21 0 -77
-14 -124 -30 -70 -23 -89 -27 -99 -16 -11 10 -9 11 6 5 13 -5 17 -4 13 3 -8
12 20 39 30 29 3 -3 1 -6 -5 -6 -7 0 -12 -4 -12 -10 0 -5 9 -10 20 -10 11 0
20 5 20 10 0 6 10 14 22 19 16 6 10 8 -25 8 -26 1 -47 -3 -47 -8 0 -5 -8 -9
-18 -9 -40 0 -42 -14 -41 -279 l0 -256 117 -108 c64 -59 127 -114 140 -123 19
-13 77 -15 410 -16 213 0 403 0 422 1 l34 1 -44 45 c-40 41 -71 60 -55 35 3
-6 -1 -7 -9 -4 -19 7 -21 24 -4 24 7 0 -23 36 -67 80 l-80 79 -213 1 -212 0
-59 53 -59 52 -2 70 c-6 196 -17 418 -19 400z m-71 -589 c0 -2 -7 -7 -16 -10
-8 -3 -12 -2 -9 4 6 10 25 14 25 6z m475 -64 c-15 -16 -16 -15 -4 12 7 15 15
23 17 16 3 -7 -3 -19 -13 -28z m57 16 c-12 -12 -35 -1 -27 12 3 5 13 6 21 3
10 -4 12 -9 6 -15z m32 -3 c-4 -8 -11 -15 -16 -15 -6 0 -5 6 2 15 7 8 14 15
16 15 2 0 1 -7 -2 -15z m62 -7 c3 -5 3 -12 -1 -16 -3 -3 -10 0 -15 8 -8 13
-12 12 -27 -4 -17 -18 -17 -19 0 -13 10 4 16 3 13 -2 -8 -12 -46 -21 -46 -11
0 4 7 13 15 20 8 7 15 18 15 25 0 15 36 9 46 -7z m34 -17 c0 -5 -7 -12 -16
-15 -14 -5 -15 -4 -4 9 14 17 20 19 20 6z m105 -51 c3 -5 -1 -10 -9 -10 -8 0
-18 5 -21 10 -3 6 1 10 9 10 8 0 18 -4 21 -10z"/>
<path d="M2035 4186 c3 -65 7 -121 10 -124 8 -9 3 180 -6 213 -5 18 -6 -16 -4
-89z"/>
<path d="M1642 3980 l-2 -65 72 -72 c40 -40 75 -73 79 -73 3 0 -27 34 -67 75
l-73 75 -4 63 -3 62 -2 -65z"/>
<path d="M1863 3706 c21 -20 41 -36 44 -36 11 0 -41 51 -62 62 -11 5 -3 -6 18
-26z"/>
<path d="M4450 4657 c0 -4 8 -17 19 -28 23 -25 16 -59 -11 -59 -17 0 -18 3 -8
15 26 32 -1 13 -40 -27 -37 -39 -41 -40 -35 -17 5 18 2 26 -8 26 -9 0 -12 -8
-9 -24 5 -24 -12 -32 -21 -10 -3 6 -3 -3 0 -20 4 -25 2 -33 -9 -33 -8 0 -23
-7 -34 -16 -10 -8 -13 -13 -6 -9 6 3 12 2 12 -3 0 -5 -9 -12 -21 -15 -13 -4
-18 -10 -13 -18 4 -8 3 -10 -4 -5 -6 4 -9 13 -6 20 3 8 0 17 -7 22 -8 4 -10 3
-5 -4 4 -7 2 -12 -3 -12 -6 0 -11 -4 -11 -8 0 -12 200 -248 311 -369 52 -56
152 -165 223 -242 l129 -141 124 0 123 0 -1 103 c-1 56 -4 91 -6 77 -6 -30
-23 -51 -24 -30 0 8 -1 34 -2 56 -1 23 -9 49 -17 59 -14 17 -13 17 8 6 13 -7
26 -10 29 -7 8 7 -29 48 -256 286 -301 314 -421 436 -421 427z m-38 -129 c-7
-7 -12 -8 -12 -2 0 6 3 14 7 17 3 4 9 5 12 2 2 -3 -1 -11 -7 -17z m43 -18 c3
-6 -1 -7 -9 -4 -18 7 -21 14 -7 14 6 0 13 -4 16 -10z m-75 -64 c0 -3 -4 -8
-10 -11 -5 -3 -10 -1 -10 4 0 6 5 11 10 11 6 0 10 -2 10 -4z m250 -47 c0 -5
-4 -8 -9 -4 -5 3 -12 1 -16 -5 -3 -5 -14 -10 -23 -10 -12 0 -10 4 8 14 31 18
40 19 40 5z m496 -621 c-2 -18 -4 -39 -5 -45 0 -7 -6 -13 -12 -13 -6 0 -9 7
-6 14 4 11 1 13 -10 9 -11 -4 -14 -2 -11 8 3 8 11 13 17 11 7 -1 10 2 6 7 -3
6 -12 8 -20 4 -8 -3 -15 0 -15 6 0 6 9 11 20 11 11 0 20 5 20 10 0 6 4 10 10
10 5 0 8 -15 6 -32z m-76 -22 c0 -2 -9 -6 -20 -9 -11 -3 -18 -1 -14 4 5 9 34
13 34 5z"/>
<path d="M3720 4510 c0 -7 24 -20 36 -20 13 0 1 19 -16 23 -11 3 -20 2 -20 -3z"/>
<path d="M4179 4483 c18 -24 35 -43 38 -43 7 0 -34 55 -54 71 -10 8 -3 -5 16
-28z"/>
<path d="M3831 4463 c-2 -21 -4 -50 -4 -65 -2 -29 -17 -28 -17 3 0 10 -4 19
-10 19 -5 0 -7 -14 -4 -32 5 -27 3 -30 -6 -18 -10 12 -11 11 -6 -10 5 -24 5
-24 -19 4 -17 20 -23 37 -21 59 5 42 -2 57 -27 57 -20 0 -20 -1 -2 -13 18 -14
14 -37 -7 -37 -6 0 -20 8 -31 18 -19 16 -19 16 -12 -6 6 -21 5 -23 -13 -13
-14 7 -23 8 -27 1 -4 -6 -12 -7 -18 -3 -7 4 -6 -1 2 -10 12 -15 12 -17 -3 -11
-21 8 -20 0 2 -22 16 -17 16 -18 -2 -11 -17 7 -18 4 -12 -33 4 -25 2 -40 -4
-40 -7 0 -9 -53 -7 -153 2 -120 6 -158 19 -175 9 -13 75 -84 148 -158 l133
-135 -6 163 c-4 90 -9 260 -12 378 -6 224 -11 280 -23 280 -5 0 -9 -17 -11
-37z m-91 -47 c0 -2 -7 -7 -16 -10 -8 -3 -12 -2 -9 4 6 10 25 14 25 6z m30
-92 c0 -8 -4 -12 -10 -9 -5 3 -10 10 -10 16 0 5 5 9 10 9 6 0 10 -7 10 -16z
m0 -64 c0 -5 -4 -10 -10 -10 -5 0 -10 5 -10 10 0 6 5 10 10 10 6 0 10 -4 10
-10z"/>
<path d="M3894 3960 c0 -135 2 -190 3 -122 2 67 2 177 0 245 -1 67 -3 12 -3
-123z"/>
<path d="M5795 5310 c-59 -5 -48 -7 75 -10 80 -1 135 -5 123 -7 -13 -2 -23 -9
-23 -14 0 -5 -12 -9 -27 -9 -22 0 -25 2 -13 10 11 7 6 10 -20 9 -29 0 -31 -2
-15 -9 11 -5 16 -9 11 -9 -5 -1 -3 -8 4 -16 7 -9 19 -14 26 -11 15 6 30 -12
19 -22 -4 -4 -32 -9 -63 -12 -32 -3 50 -9 188 -13 135 -4 371 -11 525 -15
l280 -9 -499 -1 c-275 -1 -497 -4 -495 -6 3 -3 94 -12 163 -16 5 0 3 -7 -5
-16 -10 -13 -10 -17 2 -25 21 -13 29 -11 23 6 -4 8 -1 15 5 15 6 0 11 -4 11
-10 0 -5 12 -10 26 -10 21 0 24 4 19 20 -9 28 3 25 14 -3 6 -15 18 -23 37 -25
68 -5 27 -12 -76 -12 -62 0 -111 -2 -109 -5 3 -2 180 -5 393 -5 l387 -1 72
-66 c86 -79 91 -86 78 -121 -6 -17 -10 -21 -10 -9 -1 9 -5 17 -11 17 -5 0 -10
7 -10 15 0 8 -5 15 -11 15 -6 0 -9 -7 -6 -15 4 -8 7 -143 8 -301 l1 -288 52
-49 c28 -28 106 -104 174 -171 l123 -121 -7 180 c-3 99 -10 192 -16 207 -9 23
-13 26 -34 18 -16 -7 -24 -6 -24 1 0 8 -5 8 -15 -1 -12 -10 -19 -7 -41 17 -24
25 -26 26 -20 6 8 -25 -8 -32 -18 -8 -10 27 -32 16 -54 -27 -21 -40 -22 -41
-18 -12 3 17 1 35 -4 40 -5 5 -10 27 -12 49 -2 25 -8 39 -15 38 -7 -2 -13 2
-13 7 0 6 -5 10 -10 10 -6 0 -9 -10 -8 -22 2 -13 -1 -24 -7 -26 -14 -3 -19
323 -6 346 9 15 10 15 11 -3 0 -16 2 -17 10 -5 8 12 10 12 16 -3 3 -9 10 -17
16 -17 5 0 6 5 3 10 -3 6 0 10 9 10 8 0 16 -5 18 -12 3 -7 11 -9 24 -4 18 8
18 8 -3 18 -12 6 -24 17 -27 24 -3 8 14 3 42 -13 65 -35 72 -42 65 -61 -4 -13
-2 -13 9 2 17 22 51 28 86 15 16 -6 22 -5 22 6 0 8 7 15 15 15 13 0 15 22 15
138 l0 138 -125 127 -126 127 -567 -2 c-312 -1 -598 -4 -637 -8z m320 -170 c3
-5 1 -10 -4 -10 -6 0 -11 5 -11 10 0 6 2 10 4 10 3 0 8 -4 11 -10z m812 -302
c-3 -8 -6 -5 -6 6 -1 11 2 17 5 13 3 -3 4 -12 1 -19z m133 -438 c0 -5 -2 -10
-4 -10 -3 0 -8 5 -11 10 -3 6 -1 10 4 10 6 0 11 -4 11 -10z m150 -37 c0 -9 -3
-13 -7 -10 -3 4 -12 2 -20 -4 -10 -9 -13 -8 -13 4 0 14 13 24 33 26 4 1 7 -6
7 -16z m-167 -53 c-4 -16 -9 -18 -24 -9 -16 8 -17 14 -8 30 13 26 40 8 32 -21z"/>
<path d="M7020 4324 c0 -8 5 -12 10 -9 6 4 8 11 5 16 -9 14 -15 11 -15 -7z"/>
<path d="M6150 5022 l-265 -2 -42 -42 c-36 -35 -43 -48 -42 -78 1 -21 3 -27 6
-15 3 11 26 41 51 68 l46 47 431 -1 430 0 35 -44 c34 -43 50 -54 50 -36 0 4
-18 32 -41 60 l-41 51 -176 -2 c-98 -2 -296 -4 -442 -6z"/>
<path d="M7060 4775 c7 -9 15 -13 17 -11 7 7 -7 26 -19 26 -6 0 -6 -6 2 -15z"/>
<path d="M5803 4655 c0 -33 2 -45 4 -27 2 18 2 45 0 60 -2 15 -4 0 -4 -33z"/>
<path d="M5755 4567 c-6 -14 -10 -15 -15 -6 -6 9 -12 9 -24 -4 -9 -8 -16 -20
-16 -25 0 -6 -9 -8 -20 -5 -11 3 -17 10 -14 15 7 11 -37 -13 -49 -27 -5 -6 -7
-3 -3 8 3 11 0 17 -9 17 -8 0 -15 -6 -15 -14 0 -8 -6 -16 -13 -19 -16 -6 -44
8 -31 15 5 3 3 3 -4 1 -8 -1 -23 -3 -33 -3 -14 0 -18 -4 -12 -12 4 -7 -5 -5
-19 4 l-27 18 1 -282 c0 -155 2 -288 5 -295 3 -7 46 -50 97 -95 143 -129 179
-159 206 -173 18 -9 136 -14 439 -20 l415 -7 -30 33 c-104 118 -226 247 -204
217 17 -25 -2 -23 -23 2 -16 19 -29 20 -240 20 l-224 0 -56 56 -57 55 -1 247
c-1 244 -7 318 -24 279z m-280 -67 c3 -5 1 -10 -4 -10 -6 0 -11 5 -11 10 0 6
2 10 4 10 3 0 8 -4 11 -10z m20 -90 c3 -5 1 -10 -4 -10 -6 0 -11 5 -11 10 0 6
2 10 4 10 3 0 8 -4 11 -10z m160 -40 c3 -5 2 -10 -4 -10 -5 0 -13 5 -16 10 -3
6 -2 10 4 10 5 0 13 -4 16 -10z m-95 -368 c0 -5 -7 -17 -16 -28 -8 -10 -13
-13 -9 -6 3 6 0 12 -7 12 -8 1 -6 6 6 15 23 17 26 18 26 7z m80 -92 c0 -5 -9
-10 -20 -10 -11 0 -20 5 -20 10 0 6 9 10 20 10 11 0 20 -4 20 -10z m210 -9 c0
-3 -11 -7 -25 -7 -20 -2 -23 1 -15 11 11 13 40 10 40 -4z m34 -3 c-4 -13 -7
-29 -7 -35 0 -10 -4 -10 -15 -1 -9 8 -10 14 -3 16 6 2 8 8 5 14 -4 6 0 14 7
19 20 13 21 11 13 -13z m-294 2 c0 -5 -2 -10 -4 -10 -3 0 -8 5 -11 10 -3 6 -1
10 4 10 6 0 11 -4 11 -10z"/>
<path d="M5801 4554 c0 -11 3 -14 6 -6 3 7 2 16 -1 19 -3 4 -6 -2 -5 -13z"/>
<path d="M5798 4411 c-11 -177 -9 -363 3 -332 5 13 8 119 7 240 -3 213 -3 214
-10 92z"/>
<path d="M7018 4473 c7 -3 16 -2 19 1 4 3 -2 6 -13 5 -11 0 -14 -3 -6 -6z"/>
<path d="M7982 3530 c0 -14 2 -19 5 -12 2 6 2 18 0 25 -3 6 -5 1 -5 -13z"/>
<path d="M7793 3950 c0 -25 2 -35 4 -22 2 12 2 32 0 45 -2 12 -4 2 -4 -23z"/>
<path d="M7782 3825 c0 -16 2 -22 5 -12 2 9 2 23 0 30 -3 6 -5 -1 -5 -18z"/>
<path d="M7771 3754 c0 -11 3 -14 6 -6 3 7 2 16 -1 19 -3 4 -6 -2 -5 -13z"/>
<path d="M7245 2399 c-4 -6 -5 -12 -2 -15 2 -3 7 2 10 11 7 17 1 20 -8 4z"/>
<path d="M6977 2303 c-14 -13 -6 -20 23 -20 26 0 27 2 12 13 -20 15 -26 17
-35 7z"/>
<path d="M6945 2260 c-3 -5 -1 -10 4 -10 6 0 11 5 11 10 0 6 -2 10 -4 10 -3 0
-8 -4 -11 -10z"/>
<path d="M6994 2255 c8 -8 22 -15 31 -15 9 0 13 -4 10 -10 -3 -5 -2 -10 3 -10
6 0 12 6 15 14 6 15 -18 30 -33 21 -5 -3 -11 -1 -15 5 -3 5 -11 10 -16 10 -6
0 -4 -7 5 -15z"/>
<path d="M1890 2015 c0 -12 55 -54 70 -54 9 0 6 5 -7 11 -13 6 -23 15 -23 19
0 5 -9 13 -20 19 -11 6 -20 8 -20 5z"/>
<path d="M2020 1886 c0 -2 7 -9 15 -16 13 -11 14 -10 9 4 -5 14 -24 23 -24 12z"/>
<path d="M2660 1717 c0 -7 75 -57 85 -57 5 0 5 4 0 8 -16 14 -85 54 -85 49z"/>
<path d="M2520 1695 c0 -8 4 -15 10 -15 5 0 7 7 4 15 -4 8 -8 15 -10 15 -2 0
-4 -7 -4 -15z"/>
<path d="M2480 1636 c0 -25 22 -40 36 -26 17 17 35 -5 26 -30 -8 -22 -3 -28
62 -67 39 -23 80 -43 90 -43 11 0 16 3 12 8 -4 4 -11 7 -16 7 -4 0 -18 11 -30
25 -12 14 -18 19 -14 11 4 -9 2 -12 -7 -9 -8 3 -13 11 -11 17 1 7 -2 9 -8 6
-6 -4 -24 -2 -39 5 -21 8 -27 17 -24 30 4 16 9 17 29 8 16 -7 20 -14 13 -18
-6 -4 -7 -10 -3 -13 5 -3 15 1 21 8 10 11 5 18 -27 36 -30 17 -40 29 -41 48
l-1 26 -7 -25 c-5 -17 -9 -21 -15 -12 -10 16 -29 16 -20 0 5 -10 3 -10 -7 0
-12 11 -12 14 1 22 13 8 12 10 -2 10 -12 0 -18 -8 -18 -24z"/>
<path d="M2760 1656 c0 -3 14 -12 30 -21 17 -9 30 -13 30 -11 0 3 -13 12 -30
21 -16 9 -30 13 -30 11z"/>
<path d="M2587 1639 c7 -7 15 -10 18 -7 3 3 -2 9 -12 12 -14 6 -15 5 -6 -5z"/>
<path d="M2647 1613 c-3 -5 -1 -17 4 -28 7 -17 8 -17 8 8 1 27 -4 34 -12 20z"/>
<path d="M2770 1528 c-12 -22 -12 -22 6 -6 10 10 15 20 12 24 -4 3 -12 -5 -18
-18z"/>
<path d="M2805 1500 c-3 -5 -1 -10 4 -10 6 0 11 5 11 10 0 6 -2 10 -4 10 -3 0
-8 -4 -11 -10z"/>
<path d="M2880 1499 c0 -5 5 -7 10 -4 6 3 10 8 10 11 0 2 -4 4 -10 4 -5 0 -10
-5 -10 -11z"/>
<path d="M3057 1479 c7 -7 15 -10 18 -7 3 3 -2 9 -12 12 -14 6 -15 5 -6 -5z"/>
<path d="M6249 1463 c-13 -17 -13 -17 6 -3 11 8 22 16 24 17 2 2 0 3 -6 3 -6
0 -17 -8 -24 -17z"/>
<path d="M2716 1461 c-3 -5 2 -15 12 -22 15 -12 16 -12 5 2 -7 9 -10 19 -6 22
3 4 4 7 0 7 -3 0 -8 -4 -11 -9z"/>
<path d="M2825 1450 c-3 -5 -1 -10 4 -10 6 0 11 5 11 10 0 6 -2 10 -4 10 -3 0
-8 -4 -11 -10z"/>
<path d="M5408 1363 c7 -3 16 -2 19 1 4 3 -2 6 -13 5 -11 0 -14 -3 -6 -6z"/>
<path d="M4748 1233 c7 -3 16 -2 19 1 4 3 -2 6 -13 5 -11 0 -14 -3 -6 -6z"/>
<path d="M5310 1229 c0 -5 5 -7 10 -4 6 3 10 8 10 11 0 2 -4 4 -10 4 -5 0 -10
-5 -10 -11z"/>
<path d="M4620 1200 c0 -5 5 -10 10 -10 6 0 10 5 10 10 0 6 -4 10 -10 10 -5 0
-10 -4 -10 -10z"/>
<path d="M3219 1155 c43 -19 60 -19 35 0 -10 8 -30 14 -44 14 -23 0 -22 -1 9
-14z"/>
<path d="M4712 1140 c7 -10 20 -21 30 -23 28 -8 21 6 -12 25 -28 16 -29 16
-18 -2z"/>
<path d="M5109 1133 c-13 -16 -12 -17 4 -4 16 13 21 21 13 21 -2 0 -10 -8 -17
-17z"/>
<path d="M4805 1130 c-3 -5 -2 -10 4 -10 5 0 13 5 16 10 3 6 2 10 -4 10 -5 0
-13 -4 -16 -10z"/>
<path d="M4855 1100 c3 -5 10 -10 16 -10 5 0 9 5 9 10 0 6 -7 10 -16 10 -8 0
-12 -4 -9 -10z"/>
<path d="M3238 3858 c11 -14 10 -18 -5 -27 -15 -10 -14 -10 7 -6 18 4 28 0 37
-14 11 -17 10 -22 -7 -31 -11 -6 -25 -8 -31 -5 -14 10 -59 -3 -59 -16 0 -8 4
-8 14 0 9 7 22 8 37 3 13 -5 31 -7 39 -4 11 4 11 2 -2 -11 -9 -10 -23 -17 -31
-17 -9 0 -17 -5 -19 -11 -2 -7 -11 -10 -18 -7 -11 3 -6 10 15 21 17 9 23 16
14 17 -25 0 -79 -21 -79 -31 0 -13 18 -11 23 4 3 7 6 5 6 -6 1 -10 -7 -21 -16
-24 -10 -4 -21 -11 -25 -17 -5 -7 -8 -7 -8 2 0 9 -7 11 -20 7 -13 -4 -22 -1
-26 9 -3 9 -11 16 -17 16 -6 0 -22 10 -36 23 -14 12 -23 18 -18 13 4 -5 20
-26 37 -45 16 -20 44 -54 63 -77 18 -23 50 -56 71 -74 41 -36 13 -33 324 -43
l93 -3 -69 70 c-38 39 -80 84 -93 99 -27 32 -222 212 -201 185z m27 -168 c8
-13 -5 -13 -25 0 -13 8 -13 10 2 10 9 0 20 -4 23 -10z m-85 -20 c0 -5 -7 -10
-15 -10 -8 0 -15 5 -15 10 0 6 7 10 15 10 8 0 15 -4 15 -10z m150 6 c0 -3 -4
-8 -10 -11 -5 -3 -10 -1 -10 4 0 6 5 11 10 11 6 0 10 -2 10 -4z"/>
<path d="M3240 3800 c0 -5 9 -10 21 -10 11 0 17 5 14 10 -3 6 -13 10 -21 10
-8 0 -14 -4 -14 -10z"/>
<path d="M3510 3616 c0 -2 7 -9 15 -16 13 -11 14 -10 9 4 -5 14 -24 23 -24 12z"/>
<path d="M3570 3555 c13 -14 26 -25 28 -25 3 0 -5 11 -18 25 -13 14 -26 25
-28 25 -3 0 5 -11 18 -25z"/>
<path d="M6440 4155 c19 -19 36 -35 39 -35 2 0 -6 11 -19 25 -13 14 -20 28
-16 32 4 5 18 -3 30 -17 13 -14 40 -41 61 -60 36 -33 37 -33 16 -5 -21 27 -21
30 -4 36 10 4 22 4 27 1 5 -3 6 0 2 6 -4 6 -13 9 -20 6 -8 -3 -17 0 -21 6 -5
8 -10 9 -14 2 -4 -6 -15 -3 -30 9 -14 12 -18 19 -9 19 8 0 19 -5 26 -12 9 -9
12 -9 12 0 0 9 6 10 18 4 10 -5 31 -3 52 4 32 12 26 13 -74 13 l-110 1 34 -35z"/>
<path d="M6588 4153 c6 -2 10 -9 6 -14 -3 -5 2 -9 10 -9 9 0 16 4 16 9 0 9
-25 22 -38 20 -4 0 -1 -3 6 -6z"/>
<path d="M6950 3946 c0 -2 8 -10 18 -17 15 -13 16 -12 3 4 -13 16 -21 21 -21
13z"/>
<path d="M6952 3904 c10 -10 20 -16 22 -13 3 3 -5 11 -17 18 -21 13 -21 12 -5
-5z"/>
<path d="M6990 3903 c0 -5 16 -26 35 -46 19 -21 29 -33 23 -27 -22 18 -37 11
-35 -17 2 -22 -2 -28 -17 -28 -10 0 -22 -9 -26 -19 -6 -18 -7 -18 -13 -2 -6
14 -10 15 -28 6 -11 -7 -23 -9 -26 -6 -4 3 -11 2 -17 -3 -6 -4 -19 -11 -29
-14 -14 -5 -16 -2 -11 18 6 26 -10 36 -19 13 -4 -8 -8 -4 -12 10 -4 12 -15 22
-25 22 -10 0 -20 5 -22 12 -2 6 -10 9 -17 7 -8 -3 -1 -17 21 -40 18 -19 82
-88 141 -152 l109 -117 134 0 c74 0 134 -4 134 -8 0 -5 -24 -7 -52 -4 -29 2
-69 -1 -88 -6 -28 -8 -3 -10 115 -11 127 0 147 2 133 13 -10 7 -18 16 -18 20
0 4 -17 28 -37 54 -78 98 -118 142 -128 142 -7 0 -7 -3 1 -8 14 -10 144 -168
144 -176 0 -8 -120 119 -163 172 -41 51 -207 207 -207 195z m106 -114 c19 -22
19 -22 -3 -10 -13 6 -23 16 -23 21 0 15 5 12 26 -11z m-60 -28 c0 -16 -3 -17
-14 -9 -12 10 -7 19 13 28 1 0 1 -9 1 -19z m-125 -15 c5 3 9 1 9 -5 0 -5 -4
-13 -10 -16 -5 -3 -10 -1 -10 5 0 6 -4 8 -10 5 -11 -7 -14 8 -3 19 4 4 9 2 11
-3 2 -6 8 -9 13 -5z m224 4 c3 -6 -1 -7 -9 -4 -18 7 -21 14 -7 14 6 0 13 -4
16 -10z m-177 -25 c-3 -3 -9 2 -12 12 -6 14 -5 15 5 6 7 -7 10 -15 7 -18z
m112 11 c0 -3 -4 -8 -10 -11 -5 -3 -10 -1 -10 4 0 6 5 11 10 11 6 0 10 -2 10
-4z m-80 -58 c0 -6 -6 -5 -15 2 -8 7 -15 14 -15 16 0 2 7 1 15 -2 8 -4 15 -11
15 -16z m60 12 c0 -5 -5 -10 -11 -10 -5 0 -7 5 -4 10 3 6 8 10 11 10 2 0 4 -4
4 -10z m293 -187 c-7 -2 -19 -2 -25 0 -7 3 -2 5 12 5 14 0 19 -2 13 -5z"/>
<path d="M6993 3849 c-2 -23 3 -25 10 -4 4 8 3 16 -1 19 -4 3 -9 -4 -9 -15z"/>
<path d="M6912 3835 c-11 -12 -10 -15 3 -15 8 0 15 7 15 15 0 18 -2 18 -18 0z"/>
<path d="M6865 3810 c-3 -5 -1 -10 6 -10 8 0 7 -5 -2 -17 -13 -16 -12 -17 4
-4 18 14 23 41 8 41 -6 0 -13 -4 -16 -10z"/>
<path d="M6963 3805 c-10 -7 -14 -17 -10 -22 5 -4 13 1 19 11 8 13 12 15 18 6
5 -8 10 -8 14 -2 10 16 -21 22 -41 7z"/>
<path d="M7170 3770 c17 -22 34 -40 37 -40 2 0 -10 18 -27 40 -17 22 -34 40
-37 40 -2 0 10 -18 27 -40z"/>
<path d="M6900 3790 c0 -13 11 -13 30 0 12 8 11 10 -7 10 -13 0 -23 -4 -23
-10z"/>
<path d="M6919 3586 c8 -9 33 -31 55 -48 l41 -32 -35 38 c-37 40 -88 76 -61
42z"/>
<path d="M880 3395 c-11 -13 -10 -14 4 -9 9 3 16 10 16 15 0 13 -6 11 -20 -6z"/>
<path d="M4350 3360 c-14 -4 -56 -20 -94 -34 -38 -14 -73 -23 -77 -20 -10 6
-220 -54 -233 -67 -15 -14 -4 -11 81 16 42 14 81 24 86 22 8 -2 -42 -21 -130
-47 -24 -7 -43 -17 -43 -21 0 -9 263 81 450 154 24 9 -10 7 -40 -3z m-185 -70
c-27 -12 -43 -12 -25 0 8 5 22 9 30 9 10 0 8 -3 -5 -9z"/>
<path d="M3715 3185 c-28 -8 -39 -13 -25 -13 14 0 43 5 65 13 51 17 25 17 -40
0z"/>
<path d="M3840 3175 c-19 -7 -28 -13 -20 -13 8 0 31 6 50 13 19 7 28 13 20 13
-8 0 -31 -6 -50 -13z"/>
<path d="M2740 3009 c0 -5 5 -7 10 -4 6 3 10 8 10 11 0 2 -4 4 -10 4 -5 0 -10
-5 -10 -11z"/>
<path d="M710 2836 c0 -2 7 -7 16 -10 8 -3 12 -2 9 4 -6 10 -25 14 -25 6z"/>
<path d="M775 2820 c11 -5 29 -9 40 -9 l20 0 -20 9 c-11 5 -29 9 -40 9 l-20 0
20 -9z"/>
<path d="M637 2670 c9 -9 111 -26 103 -17 -3 3 -29 10 -58 15 -30 5 -50 6 -45
2z"/>
<path d="M2345 1330 c3 -5 11 -10 16 -10 6 0 7 5 4 10 -3 6 -11 10 -16 10 -6
0 -7 -4 -4 -10z"/>
<path d="M5746 1871 c-4 -5 3 -7 14 -4 23 6 26 13 6 13 -8 0 -17 -4 -20 -9z"/>
<path d="M4218 1773 c7 -3 16 -2 19 1 4 3 -2 6 -13 5 -11 0 -14 -3 -6 -6z"/>
<path d="M4848 7573 c7 -3 16 -2 19 1 4 3 -2 6 -13 5 -11 0 -14 -3 -6 -6z"/>
<path d="M4095 7554 c-226 -17 -318 -28 -435 -49 -74 -14 -139 -30 -145 -36
-7 -7 -5 -8 7 -4 12 5 17 0 20 -17 2 -15 9 -22 21 -20 29 5 19 -7 -15 -17 -29
-9 -26 -9 17 -5 28 4 100 14 160 24 370 62 767 60 1215 -4 516 -75 1133 -335
1573 -662 210 -156 477 -414 612 -591 l70 -92 78 0 79 -1 -33 43 c-63 80 -242
292 -288 341 -80 84 -300 277 -410 359 -228 170 -594 372 -876 484 -271 108
-603 191 -918 229 -116 14 -622 27 -732 18z"/>
<path d="M3425 7450 c-3 -6 1 -7 9 -4 18 7 21 14 7 14 -6 0 -13 -4 -16 -10z"/>
<path d="M4411 7404 c0 -11 3 -14 6 -6 3 7 2 16 -1 19 -3 4 -6 -2 -5 -13z"/>
<path d="M3325 7390 c3 -5 8 -10 11 -10 2 0 4 5 4 10 0 6 -5 10 -11 10 -5 0
-7 -4 -4 -10z"/>
<path d="M4470 7386 c0 -2 7 -9 15 -16 12 -10 15 -10 15 4 0 9 -7 16 -15 16
-8 0 -15 -2 -15 -4z"/>
<path d="M4968 7383 c12 -2 32 -2 45 0 12 2 2 4 -23 4 -25 0 -35 -2 -22 -4z"/>
<path d="M4382 7355 c-7 -8 -9 -15 -4 -15 5 0 15 7 22 15 16 19 -1 19 -18 0z"/>
<path d="M4456 7355 c4 -8 16 -14 28 -14 16 1 17 2 4 6 -10 2 -18 9 -18 14 0
5 -4 9 -10 9 -5 0 -7 -7 -4 -15z"/>
<path d="M4335 7349 c-11 -17 1 -21 15 -4 8 9 8 15 2 15 -6 0 -14 -5 -17 -11z"/>
<path d="M4970 7356 c0 -2 11 -6 25 -8 13 -3 22 -1 19 3 -5 9 -44 13 -44 5z"/>
<path d="M5260 7329 c0 -5 11 -9 24 -9 13 0 26 -6 29 -12 3 -10 8 -10 16 -2 9
8 2 14 -28 22 -23 5 -41 6 -41 1z"/>
<path d="M5388 7293 c6 -2 10 -8 7 -13 -3 -4 9 -13 27 -19 38 -13 41 -14 33
-1 -3 6 0 10 7 10 9 0 9 3 -2 10 -8 5 -19 10 -25 10 -5 0 -3 -5 5 -10 12 -8
11 -10 -7 -10 -14 0 -23 6 -23 15 0 8 -8 15 -17 14 -11 0 -13 -3 -5 -6z"/>
<path d="M4058 7283 c12 -2 30 -2 40 0 9 3 -1 5 -23 4 -22 0 -30 -2 -17 -4z"/>
<path d="M3958 7273 c7 -3 16 -2 19 1 4 3 -2 6 -13 5 -11 0 -14 -3 -6 -6z"/>
<path d="M3838 7263 c6 -2 18 -2 25 0 6 3 1 5 -13 5 -14 0 -19 -2 -12 -5z"/>
<path d="M2774 7084 c-18 -14 -18 -15 4 -4 12 6 22 13 22 15 0 8 -5 6 -26 -11z"/>
<path d="M5913 7085 c0 -8 4 -12 9 -9 5 3 20 -2 34 -11 14 -9 28 -14 31 -11 3
2 -13 14 -34 25 -31 15 -40 17 -40 6z"/>
<path d="M2924 7068 c-43 -10 -90 -21 -103 -24 -18 -4 -21 -8 -12 -13 9 -6 10
-10 2 -15 -6 -4 -9 -12 -6 -17 7 -10 -23 -1 -45 15 -8 6 -12 7 -8 2 12 -14
-38 -46 -74 -47 -23 -1 -26 -3 -10 -6 21 -4 32 -23 13 -23 -5 0 -17 -3 -27 -7
-10 -4 -15 -2 -11 3 3 6 -3 11 -14 11 -17 2 -18 0 -4 -13 19 -19 20 -30 1 -15
-10 8 -21 8 -41 1 -15 -6 -30 -8 -33 -5 -3 2 -11 0 -19 -7 -7 -6 -16 -8 -20
-5 -7 8 17 38 26 33 3 -2 15 0 26 5 l20 8 -20 1 c-14 1 -7 8 25 25 25 13 40
24 35 25 -6 0 -35 -15 -65 -33 -38 -22 -56 -39 -58 -56 -3 -21 -1 -23 32 -19
41 5 41 5 20 -16 -16 -16 -39 -22 -31 -8 3 4 -6 8 -19 8 -28 2 -30 -4 -6 -22
15 -12 14 -13 -15 -14 -17 0 -39 -7 -48 -16 -9 -9 -19 -13 -23 -10 -3 4 0 11
8 16 8 5 16 14 16 20 1 5 2 15 3 20 0 6 7 9 14 8 6 -2 11 3 9 10 -1 6 6 12 15
13 10 0 13 3 6 5 -13 6 -62 -17 -108 -50 -16 -12 -41 -28 -55 -34 -23 -12
-155 -104 -191 -134 -9 -7 -22 -14 -29 -16 -7 -2 -45 -30 -85 -62 -70 -59 -93
-73 -79 -47 4 6 -5 1 -19 -12 -15 -14 -25 -27 -22 -30 7 -6 -56 -71 -69 -71
-6 0 -3 5 6 11 10 5 23 20 28 32 6 12 -39 -29 -100 -92 -60 -63 -110 -120
-110 -128 0 -8 5 -11 10 -8 6 3 10 2 10 -4 0 -15 -18 -23 -22 -9 -6 18 -23 3
-81 -70 -135 -170 -312 -469 -372 -628 -30 -81 -31 -91 -4 -99 11 -4 18 -9 16
-12 -3 -2 -14 0 -25 6 -24 13 -30 3 -28 -51 1 -28 -2 -38 -14 -38 -11 0 -12
-2 -3 -8 10 -6 9 -15 -3 -37 -9 -17 -19 -48 -24 -70 -4 -22 -18 -78 -29 -123
-12 -46 -20 -89 -17 -95 2 -7 5 -3 5 8 1 11 6 27 12 35 8 11 9 3 5 -30 -5 -37
-4 -42 6 -25 6 11 17 24 25 28 7 4 13 13 13 19 0 7 -5 6 -15 -2 -18 -15 -20 1
-3 18 20 20 30 14 26 -15 -3 -24 1 -28 27 -33 22 -4 30 -11 31 -28 1 -13 -5
-22 -13 -22 -8 0 -11 -4 -8 -10 13 -22 37 2 34 34 0 5 4 12 9 15 5 3 34 80 64
171 61 182 128 340 201 470 59 106 196 318 245 379 75 93 158 189 251 289 201
216 548 464 859 612 103 50 184 101 135 86 -13 -4 -23 -4 -23 1 0 11 37 43 43
37 2 -2 15 -1 27 4 22 8 22 9 4 14 -11 3 -56 -3 -100 -14z m-15 -76 c-30 -23
-59 -34 -59 -22 0 5 10 12 23 16 21 7 21 7 2 15 -15 6 -11 8 19 8 l39 1 -24
-18z m-139 -6 c0 -11 -19 -15 -25 -6 -3 5 1 10 9 10 9 0 16 -2 16 -4z m-380
-186 c0 -5 -5 -10 -11 -10 -5 0 -7 5 -4 10 3 6 8 10 11 10 2 0 4 -4 4 -10z
m-460 -254 c0 -2 -8 -10 -17 -17 -16 -13 -17 -12 -4 4 13 16 21 21 21 13z m40
0 c0 -2 -8 -10 -17 -17 -16 -13 -17 -12 -4 4 13 16 21 21 21 13z m-40 -29 c0
-2 -10 -12 -22 -23 l-23 -19 19 23 c18 21 26 27 26 19z m-290 -431 c0 -3 -4
-8 -10 -11 -5 -3 -10 -1 -10 4 0 6 5 11 10 11 6 0 10 -2 10 -4z m-439 -573
c-12 -20 -14 -14 -5 12 4 9 9 14 11 11 3 -2 0 -13 -6 -23z m116 -79 c-6 -6
-47 9 -47 17 0 5 11 3 25 -3 14 -6 24 -13 22 -14z m-122 -82 c-3 -3 -11 0 -18
7 -9 10 -8 11 6 5 10 -3 15 -9 12 -12z"/>
<path d="M3090 7050 c-8 -5 -10 -10 -5 -10 6 0 17 5 25 10 8 5 11 10 5 10 -5
0 -17 -5 -25 -10z"/>
<path d="M6122 6974 c10 -10 20 -15 24 -12 3 4 -5 12 -18 18 -22 12 -22 12 -6
-6z"/>
<path d="M6161 6956 c19 -19 84 -66 90 -66 22 0 5 21 -34 45 -38 22 -69 33
-56 21z"/>
<path d="M2900 6940 c-9 -6 -10 -10 -3 -10 6 0 15 5 18 10 8 12 4 12 -15 0z"/>
<path d="M6307 6865 c3 -8 9 -12 14 -9 12 7 11 11 -5 17 -10 4 -13 1 -9 -8z"/>
<path d="M6338 6843 c7 -3 16 -2 19 1 4 3 -2 6 -13 5 -11 0 -14 -3 -6 -6z"/>
<path d="M6380 6820 c0 -5 4 -10 8 -10 5 0 17 -8 28 -17 40 -37 54 -45 54 -35
0 6 -20 25 -45 42 -25 17 -45 26 -45 20z"/>
<path d="M2122 6720 c-56 -41 -54 -49 3 -10 40 27 53 40 42 40 -2 0 -23 -14
-45 -30z"/>
<path d="M2036 6655 c-11 -8 -15 -15 -9 -15 6 0 16 7 23 15 16 19 11 19 -14 0z"/>
<path d="M1975 6604 l-30 -26 33 18 c17 10 32 22 32 26 0 11 -1 10 -35 -18z"/>
<path d="M7060 6481 c0 -6 4 -13 10 -16 6 -3 7 1 4 9 -7 18 -14 21 -14 7z"/>
<path d="M8700 5900 c8 -5 20 -10 25 -10 6 0 3 5 -5 10 -8 5 -19 10 -25 10 -5
0 -3 -5 5 -10z"/>
<path d="M776 5069 c-10 -33 -16 -63 -13 -65 2 -2 11 24 21 57 9 34 15 63 13
66 -2 2 -12 -24 -21 -58z"/>
<path d="M1120 5021 c0 -5 5 -13 10 -16 6 -3 10 -2 10 4 0 5 -4 13 -10 16 -5
3 -10 2 -10 -4z"/>
<path d="M1150 5010 c0 -5 6 -10 14 -10 8 0 18 5 21 10 3 6 -3 10 -14 10 -12
0 -21 -4 -21 -10z"/>
<path d="M1080 4976 c0 -8 71 -12 76 -4 3 4 -13 8 -35 8 -23 0 -41 -2 -41 -4z"/>
<path d="M1015 4549 c-4 -6 -5 -12 -2 -15 2 -3 7 2 10 11 7 17 1 20 -8 4z"/>
<path d="M1122 4540 c0 -14 2 -19 5 -12 2 6 2 18 0 25 -3 6 -5 1 -5 -13z"/>
</g>
</svg>
